<?xml version="1.0" encoding="UTF-8"?>
<svg xmlns="http://www.w3.org/2000/svg" xmlns:xlink="http://www.w3.org/1999/xlink" width="193px" height="128px" viewBox="0 0 193 128" version="1.1">
<defs>
<filter id="alpha" filterUnits="objectBoundingBox" x="0%" y="0%" width="100%" height="100%">
  <feColorMatrix type="matrix" in="SourceGraphic" values="0 0 0 0 1 0 0 0 0 1 0 0 0 0 1 0 0 0 1 0"/>
</filter>
<mask id="mask0">
  <g filter="url(#alpha)">
<rect x="0" y="0" width="193" height="128" style="fill:rgb(0%,0%,0%);fill-opacity:0.101961;stroke:none;"/>
  </g>
</mask>
<clipPath id="clip1">
  <rect x="0" y="0" width="193" height="128"/>
</clipPath>
<g id="surface5" clip-path="url(#clip1)">
<path style=" stroke:none;fill-rule:nonzero;fill:rgb(0%,0%,0%);fill-opacity:1;" d="M 193 123.917969 C 193 121.644531 149.796875 119.800781 96.5 119.800781 C 43.203125 119.800781 0 121.644531 0 123.917969 C 0 126.1875 43.203125 128.03125 96.5 128.03125 C 149.796875 128.03125 193 126.1875 193 123.917969 Z M 193 123.917969 "/>
</g>
<mask id="mask1">
  <g filter="url(#alpha)">
<rect x="0" y="0" width="193" height="128" style="fill:rgb(0%,0%,0%);fill-opacity:0.101961;stroke:none;"/>
  </g>
</mask>
<clipPath id="clip2">
  <rect x="0" y="0" width="193" height="128"/>
</clipPath>
<g id="surface8" clip-path="url(#clip2)">
<path style=" stroke:none;fill-rule:nonzero;fill:rgb(0%,0%,0%);fill-opacity:1;" d="M 8.359375 99.464844 C 8.925781 99.527344 9.472656 99.703125 10.039062 99.738281 C 10.605469 99.773438 11.226562 99.636719 11.585938 99.195312 C 11.78125 98.957031 11.875 98.65625 12.039062 98.394531 C 12.433594 97.808594 13.144531 97.515625 13.835938 97.65625 C 14.53125 97.796875 15.074219 98.339844 15.210938 99.039062 C 15.351562 99.734375 15.0625 100.449219 14.476562 100.847656 C 14.570312 100.851562 14.660156 100.855469 14.753906 100.867188 Z M 7.664062 106.703125 C 7.414062 105.636719 7.898438 104.53125 8.847656 103.996094 C 9.800781 103.464844 10.992188 103.628906 11.761719 104.40625 C 12.53125 105.179688 12.699219 106.375 12.167969 107.332031 C 11.636719 108.289062 10.535156 108.777344 9.476562 108.523438 C 9.300781 108.789062 9.195312 109.09375 8.992188 109.335938 C 8.609375 109.785156 7.960938 109.933594 7.371094 109.90625 C 6.78125 109.875 6.210938 109.710938 5.628906 109.65625 C 5.546875 109.65625 5.464844 109.640625 5.382812 109.640625 C 5.074219 80.859375 28.039062 57.277344 56.667969 56.96875 C 85.300781 56.660156 108.761719 79.742188 109.066406 108.523438 Z M 13.597656 110.671875 C 13.414062 109.617188 13.929688 108.566406 14.875 108.070312 C 15.820312 107.578125 16.972656 107.757812 17.726562 108.511719 C 18.476562 109.269531 18.65625 110.429688 18.164062 111.378906 C 17.671875 112.328125 16.625 112.847656 15.578125 112.660156 C 15.386719 112.929688 15.269531 113.242188 15.054688 113.488281 C 14.644531 113.953125 13.949219 114.113281 13.324219 114.097656 C 12.699219 114.082031 12.136719 113.9375 11.535156 113.890625 C 11.195312 85.585938 33.75 62.363281 61.90625 62.023438 C 90.066406 61.683594 113.164062 84.355469 113.503906 112.660156 Z M 12.390625 115.445312 C 12.378906 114.445312 12.96875 113.539062 13.882812 113.152344 C 14.796875 112.765625 15.851562 112.972656 16.554688 113.679688 C 17.257812 114.382812 17.460938 115.445312 17.078125 116.363281 C 16.691406 117.285156 15.789062 117.875 14.800781 117.863281 L 17.238281 117.863281 C 17.003906 118.148438 16.851562 118.472656 16.582031 118.738281 C 16.082031 119.234375 15.277344 119.4375 14.558594 119.453125 C 14.375 125.328125 9.605469 130 3.761719 130.03125 C -2.082031 130.0625 -6.902344 125.4375 -7.148438 119.570312 C -7.390625 113.699219 -2.972656 108.6875 2.855469 108.230469 C 8.679688 107.769531 13.824219 112.027344 14.492188 117.863281 Z M 12.390625 115.445312 "/>
</g>
<mask id="mask2">
  <g filter="url(#alpha)">
<rect x="0" y="0" width="193" height="128" style="fill:rgb(0%,0%,0%);fill-opacity:0.2;stroke:none;"/>
  </g>
</mask>
<clipPath id="clip3">
  <rect x="0" y="0" width="193" height="128"/>
</clipPath>
<g id="surface11" clip-path="url(#clip3)">
<path style=" stroke:none;fill-rule:nonzero;fill:rgb(0%,0%,0%);fill-opacity:1;" d="M 12.113281 121.449219 C 14.292969 121.46875 17.175781 121.097656 17.757812 120.75 C 18.199219 120.480469 18.375 119.507812 18.433594 119.058594 L 18.496094 119.058594 C 18.496094 119.058594 18.375 120.621094 17.800781 120.984375 C 17.226562 121.347656 14.335938 121.699219 12.160156 121.6875 C 11.53125 121.6875 11.3125 121.457031 11.324219 121.121094 C 11.40625 121.320312 11.644531 121.449219 12.113281 121.449219 Z M 12.113281 121.449219 "/>
</g>
<mask id="mask3">
  <g filter="url(#alpha)">
<rect x="0" y="0" width="193" height="128" style="fill:rgb(0%,0%,0%);fill-opacity:0.101961;stroke:none;"/>
  </g>
</mask>
<clipPath id="clip4">
  <rect x="0" y="0" width="193" height="128"/>
</clipPath>
<g id="surface14" clip-path="url(#clip4)">
<path style=" stroke:none;fill-rule:nonzero;fill:rgb(0%,0%,0%);fill-opacity:1;" d="M 177.324219 101.039062 C 177.886719 101.101562 178.4375 101.28125 179.003906 101.3125 C 179.570312 101.347656 180.191406 101.210938 180.550781 100.773438 C 180.742188 100.53125 180.839844 100.230469 181 99.972656 C 181.398438 99.382812 182.105469 99.089844 182.800781 99.230469 C 183.492188 99.371094 184.035156 99.917969 184.175781 100.613281 C 184.3125 101.3125 184.023438 102.023438 183.4375 102.421875 C 183.53125 102.425781 183.625 102.433594 183.714844 102.441406 Z M 176.625 108.277344 C 176.375 107.210938 176.859375 106.105469 177.8125 105.574219 C 178.761719 105.039062 179.953125 105.207031 180.722656 105.980469 C 181.496094 106.753906 181.660156 107.949219 181.128906 108.90625 C 180.597656 109.867188 179.5 110.351562 178.4375 110.097656 C 178.265625 110.363281 178.15625 110.667969 177.953125 110.910156 C 177.570312 111.363281 176.921875 111.507812 176.332031 111.480469 C 175.742188 111.453125 175.171875 111.285156 174.589844 111.230469 C 174.507812 111.230469 174.425781 111.21875 174.34375 111.214844 C 174.039062 128.902344 159.527344 142.988281 141.933594 142.679688 C 124.339844 142.371094 110.328125 127.785156 110.636719 110.097656 Z M 182.5625 112.246094 C 182.375 111.195312 182.894531 110.140625 183.835938 109.648438 C 184.78125 109.152344 185.933594 109.332031 186.6875 110.089844 C 187.441406 110.84375 187.617188 112.003906 187.125 112.953125 C 186.632812 113.902344 185.585938 114.421875 184.539062 114.238281 C 184.351562 114.507812 184.230469 114.816406 184.015625 115.066406 C 183.605469 115.527344 182.914062 115.691406 182.289062 115.675781 C 181.664062 115.660156 181.097656 115.511719 180.496094 115.464844 C 180.160156 133.628906 165.238281 148.074219 147.171875 147.738281 C 129.105469 147.398438 114.734375 132.398438 115.070312 114.238281 Z M 181.355469 117.019531 C 181.339844 116.023438 181.929688 115.117188 182.84375 114.730469 C 183.757812 114.339844 184.816406 114.550781 185.515625 115.253906 C 186.21875 115.960938 186.425781 117.023438 186.039062 117.941406 C 185.652344 118.859375 184.753906 119.453125 183.761719 119.4375 L 186.199219 119.4375 C 185.964844 119.726562 185.816406 120.046875 185.542969 120.316406 C 185.042969 120.808594 184.238281 121.015625 183.519531 121.03125 C 183.339844 126.902344 178.566406 131.578125 172.722656 131.605469 C 166.878906 131.636719 162.058594 127.015625 161.8125 121.144531 C 161.570312 115.277344 165.988281 110.265625 171.816406 109.804688 C 177.640625 109.347656 182.785156 113.601562 183.453125 119.4375 Z M 181.355469 117.019531 "/>
</g>
<mask id="mask4">
  <g filter="url(#alpha)">
<rect x="0" y="0" width="193" height="128" style="fill:rgb(0%,0%,0%);fill-opacity:0.2;stroke:none;"/>
  </g>
</mask>
<clipPath id="clip5">
  <rect x="0" y="0" width="193" height="128"/>
</clipPath>
<g id="surface17" clip-path="url(#clip5)">
<path style=" stroke:none;fill-rule:nonzero;fill:rgb(0%,0%,0%);fill-opacity:1;" d="M 181.074219 123.023438 C 183.253906 123.042969 186.136719 122.675781 186.71875 122.324219 C 187.160156 122.054688 187.335938 121.082031 187.394531 120.636719 L 187.460938 120.636719 C 187.460938 120.636719 187.335938 122.199219 186.761719 122.5625 C 186.1875 122.921875 183.296875 123.277344 181.121094 123.261719 C 180.492188 123.261719 180.273438 123.03125 180.285156 122.699219 C 180.367188 122.894531 180.609375 123.023438 181.074219 123.023438 Z M 181.074219 123.023438 "/>
</g>
<mask id="mask5">
  <g filter="url(#alpha)">
<rect x="0" y="0" width="193" height="128" style="fill:rgb(0%,0%,0%);fill-opacity:0.101961;stroke:none;"/>
  </g>
</mask>
<clipPath id="clip6">
  <rect x="0" y="0" width="193" height="128"/>
</clipPath>
<g id="surface20" clip-path="url(#clip6)">
<path style=" stroke:none;fill-rule:nonzero;fill:rgb(0%,0%,0%);fill-opacity:1;" d="M 90.910156 7.621094 L 98.65625 7.621094 L 98.65625 19.765625 L 90.910156 19.765625 Z M 90.910156 7.621094 "/>
</g>
<mask id="mask6">
  <g filter="url(#alpha)">
<rect x="0" y="0" width="193" height="128" style="fill:rgb(0%,0%,0%);fill-opacity:0.101961;stroke:none;"/>
  </g>
</mask>
<clipPath id="clip7">
  <rect x="0" y="0" width="193" height="128"/>
</clipPath>
<g id="surface23" clip-path="url(#clip7)">
<path style=" stroke:none;fill-rule:nonzero;fill:rgb(0%,0%,0%);fill-opacity:1;" d="M 92.996094 14.476562 C 92.957031 14.835938 92.839844 15.226562 92.53125 15.417969 C 92.28125 15.574219 91.964844 15.5625 91.675781 15.621094 C 92.308594 15.78125 92.824219 16.238281 93.058594 16.847656 C 93.292969 17.457031 93.21875 18.144531 92.855469 18.6875 L 99.6875 25.554688 C 99.988281 26.417969 100.355469 27.273438 100.921875 27.988281 C 100.253906 48.273438 83.351562 64.175781 63.171875 63.503906 C 42.992188 62.832031 27.175781 45.84375 27.84375 25.554688 C 28.210938 25.855469 28.589844 26.164062 29.042969 26.304688 C 30.46875 27.410156 30.925781 29.371094 30.132812 30.996094 C 29.339844 32.621094 27.523438 33.464844 25.777344 33.007812 C 24.035156 32.554688 22.851562 30.929688 22.945312 29.121094 C 23.042969 27.316406 24.386719 25.824219 26.167969 25.554688 C 26.558594 25.574219 26.976562 25.585938 27.316406 25.390625 C 27.839844 25.085938 27.996094 24.417969 28.28125 23.878906 C 28.519531 23.425781 28.878906 23.039062 29.101562 22.574219 C 31.75 23.597656 33.066406 26.582031 32.054688 29.242188 C 31.039062 31.902344 28.070312 33.234375 25.421875 32.214844 C 22.777344 31.199219 21.449219 28.21875 22.457031 25.554688 L 22.9375 23.402344 C 23.113281 22.621094 23.273438 21.738281 22.835938 21.066406 C 22.914062 21.242188 22.855469 21.445312 22.703125 21.554688 L 25.566406 24.433594 L 26.25 24.433594 C 26.285156 24.347656 26.367188 24.304688 26.445312 24.324219 C 26.523438 24.347656 26.582031 24.429688 26.582031 24.523438 C 26.582031 24.617188 26.523438 24.699219 26.445312 24.71875 C 26.367188 24.738281 26.285156 24.695312 26.25 24.609375 C 26.289062 24.664062 26.371094 24.609375 26.453125 24.476562 C 26.53125 24.339844 26.589844 24.164062 26.589844 24.046875 C 26.589844 23.929688 26.53125 23.902344 26.453125 23.984375 C 26.371094 24.066406 26.289062 24.230469 26.25 24.386719 C 26.226562 24.300781 26.175781 24.21875 26.097656 24.148438 C 31.605469 24.171875 36.050781 28.679688 36.027344 34.214844 C 36.003906 39.75 31.523438 44.21875 26.015625 44.195312 C 25.769531 44.183594 25.398438 44.082031 25.226562 44.300781 C 25.054688 44.523438 25.109375 45.023438 25.089844 45.285156 Z M 92.996094 14.476562 "/>
</g>
<mask id="mask7">
  <g filter="url(#alpha)">
<rect x="0" y="0" width="193" height="128" style="fill:rgb(0%,0%,0%);fill-opacity:0.101961;stroke:none;"/>
  </g>
</mask>
<clipPath id="clip8">
  <rect x="0" y="0" width="193" height="128"/>
</clipPath>
<g id="surface26" clip-path="url(#clip8)">
<path style=" stroke:none;fill-rule:nonzero;fill:rgb(0%,0%,0%);fill-opacity:1;" d="M 88.277344 17.4375 L 87.449219 18.789062 C 87.449219 18.789062 88.171875 23.460938 88.277344 24.289062 C 81.605469 48.796875 56.433594 63.222656 32.054688 56.515625 C 7.679688 49.808594 -6.671875 24.503906 0 0 C 0 0 0.101562 2.492188 0.101562 3.425781 C 0.101562 4.363281 0.625 5.917969 0.625 5.917969 C -0.273438 11.535156 -5.167969 15.613281 -10.824219 15.460938 C -16.480469 15.308594 -21.152344 10.972656 -21.75 5.316406 C -22.347656 -0.339844 -18.6875 -5.570312 -13.1875 -6.914062 C -7.691406 -8.257812 -2.050781 -5.300781 0 0 C 0.414062 1.140625 0.824219 2.492188 0.824219 2.492188 C 0.824219 2.492188 1.347656 1.039062 3.40625 3.21875 C 2.523438 3.476562 1.597656 2.964844 1.34375 2.074219 C 1.085938 1.1875 1.59375 0.257812 2.480469 0 C 2.480469 0 1.859375 -2.800781 1.859375 -4.257812 C 1.859375 -5.710938 0.722656 -12.660156 0.722656 -12.660156 C 0.722656 -12.660156 -0.015625 -20.5625 -2.492188 -18.582031 Z M 88.277344 17.4375 "/>
</g>
<mask id="mask8">
  <g filter="url(#alpha)">
<rect x="0" y="0" width="193" height="128" style="fill:rgb(0%,0%,0%);fill-opacity:0.101961;stroke:none;"/>
  </g>
</mask>
<clipPath id="clip9">
  <rect x="0" y="0" width="193" height="128"/>
</clipPath>
<g id="surface29" clip-path="url(#clip9)">
<path style=" stroke:none;fill-rule:nonzero;fill:rgb(0%,0%,0%);fill-opacity:1;" d="M 101.703125 16.601562 L 102.226562 17.21875 C 102.226562 17.21875 102.832031 20.753906 101.492188 25.21875 L 101.078125 29.265625 C 101.078125 29.265625 100.355469 32.695312 100.253906 33.523438 C 100.148438 34.351562 100.148438 34.457031 99.941406 34.769531 C 90.390625 62.511719 60.277344 77.21875 32.675781 67.617188 C 5.078125 58.015625 -9.550781 27.742188 0 0 L -0.621094 2.277344 C -0.621094 2.277344 -1.546875 1.132812 -3.40625 2.589844 C -3.40625 2.589844 -3.929688 1.757812 -3.511719 1.03125 C -3.09375 0.304688 -3.097656 -0.0078125 -3.203125 -0.214844 C -3.304688 -0.421875 -2.789062 -1.460938 -2.789062 -1.667969 C -2.789062 -1.878906 -2.0625 -6.648438 -2.0625 -6.648438 C -2.0625 -6.648438 -1.75 -11.320312 -1.441406 -12.878906 C -1.25 -13.835938 -1.253906 -15.96875 -1.289062 -17.472656 C -1.320312 -19.039062 0.5625 -19.882812 1.675781 -18.785156 C 1.699219 -18.757812 1.730469 -18.730469 1.761719 -18.691406 Z M 101.703125 16.601562 "/>
</g>
<mask id="mask9">
  <g filter="url(#alpha)">
<rect x="0" y="0" width="193" height="128" style="fill:rgb(0%,0%,0%);fill-opacity:0.101961;stroke:none;"/>
  </g>
</mask>
<clipPath id="clip10">
  <rect x="0" y="0" width="193" height="128"/>
</clipPath>
<g id="surface32" clip-path="url(#clip10)">
<path style=" stroke:none;fill-rule:nonzero;fill:rgb(0%,0%,0%);fill-opacity:1;" d="M 97.246094 4.550781 C 96.046875 5.476562 94.34375 5.316406 93.335938 4.183594 C 92.324219 3.054688 92.355469 1.332031 93.402344 0.234375 C 94.445312 -0.863281 96.15625 -0.964844 97.324219 0 C 98.9375 -0.652344 100.585938 -0.0703125 100.585938 -0.0703125 C 101.410156 -0.363281 102.121094 -0.335938 102.738281 -0.078125 Z M 97.246094 4.550781 "/>
</g>
<mask id="mask10">
  <g filter="url(#alpha)">
<rect x="0" y="0" width="193" height="128" style="fill:rgb(0%,0%,0%);fill-opacity:0.101961;stroke:none;"/>
  </g>
</mask>
<clipPath id="clip11">
  <rect x="0" y="0" width="193" height="128"/>
</clipPath>
<g id="surface35" clip-path="url(#clip11)">
<path style=" stroke:none;fill-rule:nonzero;fill:rgb(0%,0%,0%);fill-opacity:1;" d="M 94.886719 6.324219 C 92.40625 6.039062 92.066406 10.398438 92.101562 13.160156 C 92.128906 10.414062 92.589844 6.683594 94.886719 6.945312 C 97.464844 7.242188 97.890625 11.613281 97.917969 14.089844 C 97.949219 11.816406 97.703125 6.648438 94.886719 6.324219 Z M 89.105469 14.941406 C 96.636719 4.695312 110.117188 0.878906 121.863281 5.667969 C 133.609375 10.457031 140.636719 22.636719 138.941406 35.261719 C 137.246094 47.886719 127.257812 57.757812 114.671875 59.246094 C 102.082031 60.734375 90.089844 53.464844 85.527344 41.578125 C 85.527344 41.578125 87.285156 42.71875 88.625 41.992188 C 88.625 41.992188 88.605469 41.765625 88.578125 41.390625 C 87.242188 42.070312 85.527344 40.953125 85.527344 40.953125 Z M 100.566406 14.636719 C 99.988281 15.703125 98.160156 15.234375 97.910156 15.164062 C 97.898438 15.546875 97.882812 15.777344 97.882812 15.777344 C 97.882812 15.777344 99.945312 16.398438 100.566406 15.253906 C 100.695312 15.019531 100.761719 14.355469 100.742188 13.46875 C 100.722656 14.035156 100.664062 14.460938 100.566406 14.636719 Z M 100.566406 14.636719 "/>
</g>
<mask id="mask11">
  <g filter="url(#alpha)">
<rect x="0" y="0" width="193" height="128" style="fill:rgb(0%,0%,0%);fill-opacity:0.101961;stroke:none;"/>
  </g>
</mask>
<clipPath id="clip12">
  <rect x="0" y="0" width="193" height="128"/>
</clipPath>
<g id="surface38" clip-path="url(#clip12)">
<path style=" stroke:none;fill-rule:nonzero;fill:rgb(0%,0%,0%);fill-opacity:1;" d="M 154.285156 84.828125 C 153.382812 84.929688 152.511719 85.210938 151.609375 85.265625 C 150.707031 85.320312 149.714844 85.105469 149.144531 84.390625 C 148.835938 84.011719 148.683594 83.53125 148.421875 83.117188 C 148.832031 83.753906 148.960938 84.53125 148.789062 85.269531 C 148.613281 86.007812 148.148438 86.644531 147.5 87.03125 C 147.351562 87.046875 147.207031 87.058594 147.058594 87.074219 Z M 155.394531 96.363281 C 157.199219 97.25 158.039062 99.371094 157.332031 101.261719 C 156.625 103.152344 154.605469 104.195312 152.664062 103.667969 C 150.726562 103.144531 149.5 101.222656 149.835938 99.230469 C 150.113281 99.648438 150.28125 100.136719 150.609375 100.523438 C 151.214844 101.238281 152.253906 101.472656 153.191406 101.433594 C 154.132812 101.390625 155.039062 101.121094 155.980469 101.03125 C 156.109375 101.023438 156.242188 101.011719 156.375 101.007812 C 154.570312 101.136719 152.917969 100 152.382812 98.265625 C 151.84375 96.53125 152.566406 94.652344 154.121094 93.730469 C 155.679688 92.804688 157.660156 93.078125 158.914062 94.390625 C 160.164062 95.699219 160.355469 97.703125 159.375 99.230469 Z M 145.9375 102.6875 C 147.75 103.519531 148.652344 105.59375 148.019531 107.496094 C 147.386719 109.398438 145.425781 110.511719 143.480469 110.078125 C 141.53125 109.644531 140.226562 107.804688 140.449219 105.8125 C 140.753906 106.238281 140.941406 106.734375 141.296875 107.132812 C 141.953125 107.867188 143.058594 108.125 144.054688 108.101562 C 145.019531 108.082031 145.949219 107.84375 146.90625 107.769531 C 145.117188 108.078125 143.347656 107.101562 142.652344 105.410156 C 141.953125 103.722656 142.511719 101.773438 143.996094 100.714844 C 145.476562 99.660156 147.492188 99.773438 148.847656 100.992188 C 150.203125 102.214844 150.535156 104.210938 149.652344 105.8125 Z M 147.859375 110.292969 C 149.46875 109.992188 151.09375 110.738281 151.925781 112.152344 C 152.757812 113.570312 152.621094 115.359375 151.582031 116.632812 C 150.542969 117.902344 148.824219 118.386719 147.28125 117.839844 C 145.734375 117.296875 144.695312 115.839844 144.675781 114.191406 C 145.046875 114.648438 145.289062 115.160156 145.71875 115.582031 C 146.515625 116.371094 147.800781 116.695312 148.945312 116.722656 C 150.019531 123.660156 146.742188 130.546875 140.699219 134.058594 C 134.652344 137.574219 127.078125 136.988281 121.636719 132.589844 C 116.195312 128.191406 114 120.882812 116.113281 114.191406 Z M 147.859375 110.292969 "/>
</g>
<mask id="mask12">
  <g filter="url(#alpha)">
<rect x="0" y="0" width="193" height="128" style="fill:rgb(0%,0%,0%);fill-opacity:0.2;stroke:none;"/>
  </g>
</mask>
<clipPath id="clip13">
  <rect x="0" y="0" width="193" height="128"/>
</clipPath>
<g id="surface41" clip-path="url(#clip13)">
<path style=" stroke:none;fill-rule:nonzero;fill:rgb(0%,0%,0%);fill-opacity:1;" d="M 148.304688 119.875 C 144.832031 119.902344 140.238281 119.328125 139.3125 118.761719 C 138.613281 118.332031 138.328125 116.785156 138.234375 116.070312 L 138.132812 116.070312 C 138.132812 116.070312 138.324219 118.5625 139.25 119.128906 C 140.175781 119.695312 144.769531 120.265625 148.242188 120.238281 C 149.242188 120.238281 149.589844 119.875 149.570312 119.34375 C 149.433594 119.660156 149.050781 119.859375 148.304688 119.875 Z M 148.304688 119.875 "/>
</g>
<mask id="mask13">
  <g filter="url(#alpha)">
<rect x="0" y="0" width="193" height="128" style="fill:rgb(0%,0%,0%);fill-opacity:0.0313725;stroke:none;"/>
  </g>
</mask>
<clipPath id="clip14">
  <rect x="0" y="0" width="193" height="128"/>
</clipPath>
<g id="surface44" clip-path="url(#clip14)">
<path style=" stroke:none;fill-rule:nonzero;fill:rgb(0%,0%,0%);fill-opacity:1;" d="M 50.269531 15.75 C 51.144531 17.300781 51.28125 19.164062 50.640625 20.828125 C 49.128906 20.15625 47.234375 20.167969 45.789062 20.921875 C 44.203125 21.253906 42.644531 20.253906 42.269531 18.671875 C 41.894531 17.085938 42.839844 15.488281 44.402344 15.066406 C 45.964844 14.640625 47.582031 15.542969 48.050781 17.101562 C 48.519531 18.660156 47.671875 20.308594 46.136719 20.828125 C 44.171875 20.828125 42.535156 18.835938 42.195312 16.210938 C 43.460938 23.445312 38.65625 30.347656 31.457031 31.621094 C 24.257812 32.898438 17.394531 28.066406 16.125 20.828125 C 17.285156 18.960938 19.0625 17.757812 21.066406 17.757812 C 23.074219 17.757812 24.835938 18.945312 25.992188 20.792969 C 26 23.101562 24.144531 24.984375 21.847656 24.996094 C 19.546875 25.003906 17.675781 23.140625 17.667969 20.828125 L 17.710938 20.828125 C 19.277344 20.832031 20.636719 22.09375 21.296875 23.933594 Z M 50.269531 15.75 "/>
</g>
<mask id="mask14">
  <g filter="url(#alpha)">
<rect x="0" y="0" width="193" height="128" style="fill:rgb(0%,0%,0%);fill-opacity:0.0313725;stroke:none;"/>
  </g>
</mask>
<clipPath id="clip15">
  <rect x="0" y="0" width="193" height="128"/>
</clipPath>
<g id="surface47" clip-path="url(#clip15)">
<path style=" stroke:none;fill-rule:nonzero;fill:rgb(0%,0%,0%);fill-opacity:1;" d="M 136.375 15.742188 C 136.8125 16.519531 136.882812 17.453125 136.5625 18.285156 L 139.449219 21.1875 L 140.9375 21.1875 C 139.957031 21.1875 139.140625 20.195312 138.96875 18.886719 C 139.601562 52.25 113.210938 79.808594 80.023438 80.445312 C 46.835938 81.082031 19.421875 54.550781 18.789062 21.1875 C 19.363281 20.257812 20.253906 19.660156 21.253906 19.660156 C 22.253906 19.660156 23.132812 20.25 23.707031 21.171875 C 23.714844 22.324219 22.789062 23.261719 21.640625 23.265625 C 20.496094 23.273438 19.5625 22.339844 19.558594 21.1875 L 19.582031 21.1875 C 20.367188 21.175781 21.035156 21.808594 21.371094 22.726562 Z M 136.375 15.742188 "/>
</g>
<mask id="mask15">
  <g filter="url(#alpha)">
<rect x="0" y="0" width="193" height="128" style="fill:rgb(0%,0%,0%);fill-opacity:0.0313725;stroke:none;"/>
  </g>
</mask>
<clipPath id="clip16">
  <rect x="0" y="0" width="193" height="128"/>
</clipPath>
<g id="surface50" clip-path="url(#clip16)">
<path style=" stroke:none;fill-rule:nonzero;fill:rgb(0%,0%,0%);fill-opacity:1;" d="M 40.390625 44.402344 C 40.105469 42.363281 41.152344 40.367188 42.984375 39.449219 C 44.820312 38.53125 47.03125 38.890625 48.480469 40.347656 C 49.929688 41.804688 50.292969 44.03125 49.375 45.875 C 48.460938 47.71875 46.476562 48.769531 44.449219 48.480469 L 44.449219 69.898438 C 45.023438 67.539062 45.554688 65.628906 45.632812 65.628906 C 45.710938 65.628906 45.304688 67.539062 44.726562 69.898438 C 46.304688 69.898438 47.613281 68.304688 47.886719 66.199219 C 48.898438 65.390625 50.308594 65.3125 51.402344 66.003906 C 52.492188 66.695312 53.03125 68.007812 52.742188 69.273438 C 52.449219 70.539062 51.394531 71.484375 50.109375 71.625 C 48.824219 71.765625 47.59375 71.074219 47.039062 69.898438 C 46.113281 68.402344 44.683594 67.449219 43.074219 67.449219 C 41.46875 67.449219 40.054688 68.398438 39.132812 69.878906 C 37.644531 69.492188 36.675781 68.046875 36.882812 66.515625 C 37.085938 64.980469 38.398438 63.847656 39.9375 63.867188 C 41.472656 63.890625 42.753906 65.066406 42.914062 66.601562 C 43.074219 68.140625 42.066406 69.554688 40.566406 69.898438 L 40.527344 69.898438 C 39.261719 69.886719 38.175781 70.898438 37.648438 72.371094 Z M 40.390625 44.402344 "/>
</g>
</defs>
<g id="surface1">
<path style=" stroke:none;fill-rule:nonzero;fill:rgb(94.901961%,94.901961%,94.901961%);fill-opacity:1;" d="M 133.71875 57.921875 L 134.921875 57.449219 C 135.035156 57.402344 135.148438 57.355469 135.269531 57.308594 C 119.527344 79.03125 89.246094 83.816406 67.632812 67.988281 C 46.023438 52.164062 41.265625 21.726562 57.007812 0 L 56.171875 4.238281 L 59.347656 0.0507812 L 59.375 0.0507812 C 64.851562 0.792969 68.800781 5.707031 68.375 11.25 C 67.945312 16.789062 63.289062 21.035156 57.761719 20.917969 C 52.234375 20.804688 47.753906 16.371094 47.554688 10.816406 C 47.355469 5.261719 51.503906 0.515625 57.007812 0 C 56.980469 0.199219 56.941406 0.390625 56.902344 0.585938 C 57.878906 -0.191406 58.796875 -1.046875 59.484375 -2.042969 C 60.875 -4.0625 61.347656 -6.550781 61.828125 -9.601562 C 62.78125 -15.636719 63.640625 -21.742188 64.414062 -27.84375 C 72.0625 -24.683594 75.714844 -15.886719 72.570312 -8.199219 C 69.425781 -0.511719 60.679688 3.160156 53.03125 0 C 53.074219 -0.320312 53.132812 -0.628906 53.203125 -0.933594 C 53.222656 -1.011719 53.238281 -1.089844 53.257812 -1.164062 C 53.332031 -1.460938 53.417969 -1.75 53.515625 -2.039062 C 53.53125 -2.085938 53.550781 -2.132812 53.566406 -2.175781 C 53.652344 -2.417969 53.742188 -2.652344 53.855469 -2.875 C 53.890625 -2.964844 53.929688 -3.050781 53.96875 -3.132812 C 54.832031 12.714844 42.75 26.261719 26.984375 27.125 C 11.21875 27.992188 -2.257812 15.847656 -3.117188 0 C -3.070312 -0.078125 -3.019531 -0.152344 -2.972656 -0.234375 C -2.867188 -0.40625 -2.753906 -0.582031 -2.636719 -0.746094 C -2.574219 -0.832031 -2.511719 -0.921875 -2.449219 -1.007812 L -2.398438 -1.074219 C -6.53125 -4.847656 -6.972656 -11.226562 -3.394531 -15.535156 C 0.179688 -19.84375 6.5 -20.554688 10.933594 -17.148438 C 15.367188 -13.738281 16.339844 -7.421875 13.140625 -2.824219 C 9.941406 1.773438 3.703125 3.019531 -1 0 L -2.089844 5.515625 L 1.046875 1.375 C 5.214844 4.957031 5.882812 11.1875 2.570312 15.582031 C -0.738281 19.976562 -6.882812 21.015625 -11.445312 17.957031 C -16.007812 14.894531 -17.40625 8.792969 -14.636719 4.03125 C -11.871094 -0.726562 -5.890625 -2.496094 -1 0 L -0.988281 0 C -1.019531 0.0703125 -1.054688 0.136719 -1.085938 0.207031 C -1.144531 0.335938 -1.203125 0.464844 -1.257812 0.59375 C -1.339844 0.753906 -1.433594 0.914062 -1.511719 1.070312 C -1.578125 1.191406 -1.644531 1.308594 -1.714844 1.421875 C -1.816406 1.597656 -1.929688 1.753906 -2.039062 1.917969 C -2.105469 2.011719 -2.167969 2.109375 -2.234375 2.203125 C -2.410156 2.445312 -2.605469 2.679688 -2.800781 2.902344 C -2.871094 2.980469 -2.945312 3.054688 -3.019531 3.128906 C -3.160156 3.28125 -3.300781 3.429688 -3.453125 3.570312 C -3.542969 3.660156 -3.640625 3.746094 -3.738281 3.828125 C -3.875 3.949219 -4.015625 4.070312 -4.160156 4.179688 C -4.265625 4.261719 -4.367188 4.339844 -4.472656 4.417969 C -6.417969 11.160156 -13.183594 15.28125 -20.035156 13.886719 C -26.882812 12.496094 -31.523438 6.058594 -30.710938 -0.917969 C -29.894531 -7.894531 -23.898438 -13.078125 -16.914062 -12.835938 C -9.929688 -12.597656 -4.296875 -7.015625 -3.957031 0 C -4.132812 0.105469 -4.316406 0.203125 -4.496094 0.300781 C -4.589844 0.347656 -4.671875 0.402344 -4.773438 0.445312 C -5.050781 0.582031 -5.332031 0.707031 -5.621094 0.816406 C -5.671875 0.835938 -5.730469 0.851562 -5.785156 0.871094 C -6.023438 0.960938 -6.265625 1.046875 -6.511719 1.109375 C -6.617188 1.136719 -6.726562 1.164062 -6.835938 1.1875 C -7.035156 1.238281 -7.238281 1.285156 -7.441406 1.320312 C -7.558594 1.34375 -7.675781 1.363281 -7.800781 1.378906 C -8.003906 1.410156 -8.203125 1.433594 -8.40625 1.449219 C -8.527344 1.460938 -8.648438 1.472656 -8.769531 1.476562 C -8.988281 1.488281 -9.210938 1.488281 -9.429688 1.488281 C -9.839844 1.488281 -10.171875 1.15625 -10.171875 0.746094 C -10.171875 0.332031 -9.839844 0 -9.429688 0 C -9.757812 2.566406 -10.101562 5.136719 -10.460938 7.703125 C -12.917969 12.078125 -18.117188 14.082031 -22.851562 12.484375 C -27.585938 10.886719 -30.527344 6.136719 -29.863281 1.160156 C -29.195312 -3.820312 -25.109375 -7.621094 -20.121094 -7.902344 C -15.132812 -8.1875 -10.648438 -4.871094 -9.429688 0 L -12.160156 4.652344 L -7.769531 1.75 C -7.835938 -2.507812 -5.328125 -6.375 -1.429688 -8.035156 C 2.472656 -9.691406 6.980469 -8.808594 9.972656 -5.800781 C 12.96875 -2.789062 13.847656 1.742188 12.199219 5.664062 C 10.546875 9.582031 6.699219 12.101562 2.464844 12.039062 L 12.886719 12.039062 C 12.847656 12.296875 12.808594 12.5625 12.769531 12.820312 C 12.34375 15.507812 11.816406 18.851562 9.941406 21.574219 C 8.671875 23.421875 6.921875 24.789062 5.222656 25.992188 C 4.117188 26.773438 2.984375 27.519531 1.828125 28.226562 C -2.890625 30.988281 -8.929688 29.621094 -12.015625 25.097656 C -15.101562 20.570312 -14.191406 14.414062 -9.929688 10.988281 C -5.664062 7.558594 0.507812 8.015625 4.222656 12.039062 C 2.363281 12.996094 0.464844 13.859375 -1.472656 14.632812 L -2.683594 15.109375 C -3.769531 15.535156 -4.886719 15.972656 -5.992188 16.4375 C -5.816406 16.453125 -5.644531 16.46875 -5.46875 16.492188 C -6.691406 10.417969 -2.789062 4.5 3.253906 3.269531 C 9.292969 2.039062 15.183594 5.964844 16.40625 12.039062 L 9.035156 16.085938 L 16.382812 15.753906 C 15.394531 21.019531 10.574219 24.660156 5.265625 24.144531 C -0.0429688 23.628906 -4.082031 19.128906 -4.046875 13.769531 C -4.015625 8.410156 0.078125 3.960938 5.390625 3.511719 C 10.703125 3.0625 15.480469 6.757812 16.40625 12.039062 C 10.871094 11.492188 6.738281 6.675781 7.011719 1.089844 C 7.285156 -4.492188 11.867188 -8.878906 17.425781 -8.878906 C 22.988281 -8.878906 27.570312 -4.492188 27.84375 1.089844 C 28.117188 6.675781 23.984375 11.492188 18.449219 12.039062 L 18.816406 12.722656 C 19.058594 13.175781 19.300781 13.625 19.535156 14.070312 C 22.726562 20.15625 22.957031 25.40625 20.1875 28.867188 L 17.921875 27.035156 C 20.621094 23.671875 18.480469 18.320312 16.964844 15.433594 C 16.734375 14.992188 16.496094 14.554688 16.265625 14.109375 C 14.21875 10.285156 11.890625 5.953125 12.824219 1.34375 C 14.21875 -5.609375 21.714844 -8.550781 27.75 -10.914062 Z M 46.960938 90.878906 L 46.023438 90.511719 C 45.933594 90.476562 45.851562 90.433594 45.753906 90.398438 C 24.230469 94.773438 3.253906 80.773438 -1.09375 59.136719 C -5.445312 37.496094 8.480469 16.410156 30.003906 12.039062 L 30.660156 15.347656 L 28.183594 12.078125 L 28.160156 12.078125 C 30.917969 10.167969 34.558594 10.152344 37.335938 12.039062 C 37.355469 12.195312 37.390625 12.34375 37.417969 12.496094 C 42.3125 14.164062 45.054688 19.386719 43.664062 24.390625 C 42.269531 29.394531 37.226562 32.429688 32.183594 31.300781 C 27.136719 30.171875 23.851562 25.273438 24.699219 20.148438 C 25.550781 15.023438 30.238281 11.460938 35.375 12.039062 C 34.289062 10.460938 33.917969 8.515625 33.539062 6.136719 C 32.804688 1.421875 32.132812 -3.347656 31.535156 -8.105469 C 37.066406 2.886719 32.6875 16.304688 21.753906 21.867188 C 10.820312 27.429688 -2.53125 23.03125 -8.0625 12.039062 C -8.097656 11.789062 -8.144531 11.546875 -8.199219 11.308594 L -8.242188 11.132812 C -8.449219 11.449219 -8.671875 11.753906 -8.917969 12.039062 C -8.929688 12 -8.945312 11.964844 -8.960938 11.929688 C -9.140625 11.972656 -9.324219 12.007812 -9.507812 12.039062 C -9.539062 11.972656 -9.570312 11.902344 -9.601562 11.835938 C -9.695312 11.640625 -9.792969 11.453125 -9.902344 11.265625 C -9.9375 11.203125 -9.980469 11.144531 -10.015625 11.089844 C -10.101562 10.953125 -10.191406 10.820312 -10.28125 10.691406 C -10.328125 10.621094 -10.375 10.550781 -10.425781 10.484375 L -10.464844 10.433594 C -11.136719 11.097656 -11.921875 11.644531 -12.785156 12.039062 L -11.933594 16.347656 L -14.382812 13.113281 C -11.820312 10.792969 -8.070312 10.359375 -5.050781 12.039062 L -5.058594 12.039062 C -5.035156 12.09375 -5.007812 12.144531 -4.984375 12.199219 C -4.9375 12.300781 -4.894531 12.402344 -4.84375 12.5 C -4.78125 12.625 -4.714844 12.75 -4.644531 12.875 C -4.59375 12.96875 -4.542969 13.0625 -4.488281 13.152344 C -4.410156 13.285156 -4.316406 13.410156 -4.234375 13.539062 C -4.183594 13.613281 -4.136719 13.691406 -4.082031 13.761719 C -3.941406 13.949219 -3.792969 14.132812 -3.640625 14.308594 C -3.585938 14.371094 -3.527344 14.425781 -3.464844 14.484375 C -3.355469 14.601562 -3.242188 14.71875 -3.125 14.835938 C -3.054688 14.90625 -2.980469 14.96875 -2.902344 15.035156 C -2.796875 15.132812 -2.6875 15.222656 -2.574219 15.3125 C -2.496094 15.375 -2.414062 15.4375 -2.332031 15.5 C -2.210938 15.585938 -2.09375 15.671875 -1.972656 15.746094 C -1.890625 15.800781 -1.808594 15.851562 -1.722656 15.902344 C -1.585938 15.988281 -1.445312 16.0625 -1.304688 16.136719 C -1.230469 16.175781 -1.160156 16.214844 -1.085938 16.253906 C -0.871094 16.359375 -0.652344 16.453125 -0.425781 16.539062 C -0.386719 16.558594 -0.339844 16.566406 -0.296875 16.582031 C -0.113281 16.652344 0.078125 16.714844 0.273438 16.769531 C 0.355469 16.792969 0.445312 16.8125 0.523438 16.832031 C 0.679688 16.871094 0.835938 16.90625 0.996094 16.9375 L 1.277344 16.980469 C 1.433594 17.003906 1.59375 17.023438 1.75 17.035156 C 1.84375 17.042969 1.9375 17.050781 2.03125 17.058594 C 2.207031 17.066406 2.382812 17.066406 2.554688 17.066406 L 2.589844 17.066406 C 2.84375 19.074219 3.113281 21.085938 3.394531 23.089844 C 0.109375 20.351562 -0.507812 15.527344 1.976562 12.039062 L 4.089844 15.652344 L 0.660156 13.386719 C 4.257812 14.355469 6.734375 17.660156 6.667969 21.40625 L 14.808594 21.40625 C 14.839844 21.605469 14.871094 21.8125 14.902344 22.015625 C 15.234375 24.113281 15.644531 26.726562 17.109375 28.855469 C 18.101562 30.300781 19.46875 31.367188 20.792969 32.304688 C 21.660156 32.917969 22.542969 33.5 23.445312 34.054688 C 19.925781 33.167969 17.414062 30.054688 17.273438 26.410156 C 17.132812 22.769531 19.402344 19.46875 22.839844 18.3125 C 26.277344 17.152344 30.0625 18.414062 32.136719 21.40625 C 33.585938 22.152344 35.070312 22.828125 36.585938 23.429688 L 37.527344 23.800781 C 38.378906 24.132812 39.25 24.476562 40.109375 24.839844 C 39.972656 24.851562 39.835938 24.863281 39.699219 24.882812 C 41.222656 22.699219 43.710938 21.402344 46.363281 21.40625 L 52.113281 24.554688 L 46.375 24.300781 C 45.644531 28.476562 41.859375 31.402344 37.65625 31.042969 C 33.449219 30.683594 30.214844 27.152344 30.199219 22.910156 C 30.183594 18.667969 33.394531 15.117188 37.597656 14.726562 C 41.796875 14.332031 45.601562 17.230469 46.363281 21.40625 C 46.269531 21.578125 46.171875 21.753906 46.078125 21.9375 C 45.886719 22.289062 45.699219 22.640625 45.515625 22.988281 C 43.023438 27.738281 42.84375 31.84375 45.007812 34.546875 L 46.773438 33.117188 C 44.664062 30.492188 46.335938 26.3125 47.523438 24.054688 C 47.695312 23.710938 47.886719 23.367188 48.074219 23.019531 C 49.671875 20.042969 51.488281 16.652344 50.765625 13.050781 C 49.683594 7.632812 43.820312 5.34375 39.113281 3.488281 Z M 46.960938 90.878906 "/>
<path style=" stroke:none;fill-rule:nonzero;fill:rgb(24.705882%,23.921569%,33.72549%);fill-opacity:1;" d="M 193 123.917969 C 193 121.644531 149.796875 119.800781 96.5 119.800781 C 43.203125 119.800781 0 121.644531 0 123.917969 C 0 126.1875 43.203125 128.03125 96.5 128.03125 C 149.796875 128.03125 193 126.1875 193 123.917969 Z M 193 123.917969 "/>
<use xlink:href="#surface5" mask="url(#mask0)"/>
<path style=" stroke:none;fill-rule:nonzero;fill:rgb(24.705882%,23.921569%,33.72549%);fill-opacity:1;" d="M 193 121.640625 C 193 119.367188 149.796875 117.523438 96.5 117.523438 C 43.203125 117.523438 0 119.367188 0 121.640625 C 0 123.914062 43.203125 125.753906 96.5 125.753906 C 149.796875 125.753906 193 123.914062 193 121.640625 Z M 193 121.640625 "/>
<path style="fill:none;stroke-width:4;stroke-linecap:butt;stroke-linejoin:miter;stroke:rgb(24.705882%,23.921569%,33.72549%);stroke-opacity:1;stroke-miterlimit:10;" d="M 84.992714 686.316376 C 82.01012 680.806213 85.396373 674.069092 89.275988 669.138947 C 93.155602 664.23111 97.887387 659.144806 97.797685 652.853851 C 97.640706 643.841278 88.087435 638.531891 80.462759 633.780212 C 107.373381 598.599945 156.799223 590.078156 193.935881 614.171173 C 231.072539 638.286499 243.428999 686.896393 222.25931 725.802155 C 201.112047 764.685608 153.592374 780.769928 113.159165 762.677856 C 72.748381 744.608093 53.058776 698.474426 67.94932 656.780121 C 66.379534 653.255402 66.424385 649.239899 66.514087 645.380554 C 66.85047 632.553253 67.478384 619.725952 68.420256 606.920959 " transform="matrix(0.174188,0,0,0.175103,0,0)"/>
<path style=" stroke:none;fill-rule:nonzero;fill:rgb(21.960784%,82.745098%,62.352941%);fill-opacity:1;" d="M 8.03125 98.808594 C -19.109375 101.039062 -42.914062 80.726562 -45.128906 53.441406 C -47.347656 26.15625 -27.144531 2.230469 0 0 L 0.546875 1.085938 L 0.53125 -0.230469 C 0.542969 -1.5625 1.625 -2.636719 2.953125 -2.632812 C 4.28125 -2.628906 5.355469 -1.546875 5.359375 -0.214844 C 5.363281 1.121094 4.296875 2.207031 2.96875 2.222656 Z M 12.390625 115.445312 C 12.378906 114.445312 12.96875 113.539062 13.882812 113.152344 C 14.796875 112.765625 15.851562 112.972656 16.554688 113.679688 C 17.257812 114.382812 17.460938 115.445312 17.078125 116.363281 C 16.691406 117.285156 15.789062 117.875 14.800781 117.863281 L 17.238281 117.863281 L 18.765625 119.113281 L 17.085938 118.71875 C 16.648438 119.898438 15.390625 120.550781 14.183594 120.21875 C 12.972656 119.886719 12.214844 118.683594 12.4375 117.445312 C 12.65625 116.207031 13.777344 115.339844 15.027344 115.449219 C 16.273438 115.558594 17.234375 116.605469 17.238281 117.863281 Z M 13.597656 110.671875 C 15.574219 109.660156 17.992188 110.453125 18.996094 112.4375 C 20 114.425781 19.214844 116.851562 17.238281 117.863281 L 17.25 118.878906 L 16.695312 117.777344 C 16.773438 116.460938 17.871094 115.441406 19.179688 115.464844 C 20.492188 115.488281 21.550781 116.546875 21.582031 117.863281 Z M 7.664062 106.703125 C 7.65625 105.707031 8.246094 104.800781 9.160156 104.414062 C 10.074219 104.03125 11.128906 104.238281 11.832031 104.941406 C 12.53125 105.648438 12.742188 106.710938 12.355469 107.628906 C 11.972656 108.546875 11.074219 109.140625 10.082031 109.132812 L 10.515625 110.324219 L 9.625 109.464844 C 10.628906 109.792969 11.3125 110.734375 11.3125 111.800781 L 13.75 111.800781 Z M 7.664062 106.703125 "/>
<use xlink:href="#surface8" mask="url(#mask1)"/>
<path style=" stroke:none;fill-rule:nonzero;fill:rgb(39.607843%,38.823529%,50.196078%);fill-opacity:1;" d="M 18.496094 119.066406 C 18.496094 119.066406 16.566406 119.007812 15.988281 118.589844 C 15.40625 118.171875 13.027344 117.675781 12.875 118.34375 C 12.722656 119.015625 9.972656 121.671875 12.152344 121.683594 C 14.332031 121.691406 17.214844 121.332031 17.796875 120.980469 C 18.375 120.632812 18.496094 119.066406 18.496094 119.066406 Z M 18.496094 119.066406 "/>
<use xlink:href="#surface11" mask="url(#mask2)"/>
<path style="fill:none;stroke-width:4;stroke-linecap:butt;stroke-linejoin:miter;stroke:rgb(24.705882%,23.921569%,33.72549%);stroke-opacity:1;stroke-miterlimit:10;" d="M 1055.008501 695.328949 C 1052.003481 689.818787 1055.389734 683.059357 1059.269349 678.129211 C 1063.148964 673.221375 1067.880748 668.135071 1067.791046 661.844116 C 1067.656493 652.853851 1058.080797 647.544464 1050.45612 642.770477 C 1077.366742 607.612518 1126.792584 599.06842 1163.951668 623.183746 C 1201.088326 647.276764 1213.422361 695.908966 1192.275097 734.792419 C 1171.105408 773.698181 1123.585735 789.760193 1083.174951 771.69043 C 1042.741742 753.598358 1023.052137 707.464691 1037.942681 665.770386 C 1036.372895 662.245667 1036.417746 658.252472 1036.529874 654.393127 C 1036.843831 641.543518 1037.471745 628.716217 1038.413617 615.911224 " transform="matrix(0.174188,0,0,0.175103,0,0)"/>
<path style=" stroke:none;fill-rule:nonzero;fill:rgb(21.960784%,82.745098%,62.352941%);fill-opacity:1;" d="M 176.992188 100.382812 C 149.417969 149.515625 87.441406 166.875 38.566406 139.152344 C -10.308594 111.433594 -27.574219 49.132812 0 0 L 0.546875 1.085938 L 0.53125 -0.230469 C 0.542969 -1.5625 1.625 -2.636719 2.953125 -2.632812 C 4.28125 -2.628906 5.355469 -1.546875 5.359375 -0.214844 C 5.363281 1.121094 4.296875 2.207031 2.96875 2.222656 Z M 181.355469 117.019531 C 181.339844 116.023438 181.929688 115.117188 182.84375 114.730469 C 183.757812 114.339844 184.816406 114.550781 185.515625 115.253906 C 186.21875 115.960938 186.425781 117.023438 186.039062 117.941406 C 185.652344 118.859375 184.753906 119.453125 183.761719 119.4375 L 186.199219 119.4375 L 187.726562 120.6875 L 186.046875 120.296875 C 185.613281 121.476562 184.351562 122.125 183.144531 121.792969 C 181.9375 121.464844 181.179688 120.261719 181.398438 119.023438 C 181.617188 117.78125 182.742188 116.917969 183.988281 117.023438 C 185.234375 117.132812 186.195312 118.179688 186.199219 119.4375 Z M 182.5625 112.246094 C 184.535156 111.238281 186.953125 112.027344 187.957031 114.015625 C 188.960938 116 188.175781 118.429688 186.199219 119.4375 L 186.210938 120.453125 L 185.65625 119.351562 C 185.738281 118.035156 186.832031 117.019531 188.144531 117.042969 C 189.453125 117.066406 190.511719 118.121094 190.542969 119.4375 Z M 176.625 108.277344 C 176.617188 107.28125 177.207031 106.378906 178.121094 105.992188 C 179.035156 105.605469 180.09375 105.8125 180.792969 106.519531 C 181.496094 107.222656 181.703125 108.285156 181.320312 109.203125 C 180.933594 110.125 180.035156 110.71875 179.042969 110.707031 L 179.476562 111.898438 L 178.585938 111.042969 C 179.59375 111.367188 180.273438 112.3125 180.273438 113.375 L 182.710938 113.375 Z M 176.625 108.277344 "/>
<use xlink:href="#surface14" mask="url(#mask3)"/>
<path style=" stroke:none;fill-rule:nonzero;fill:rgb(39.607843%,38.823529%,50.196078%);fill-opacity:1;" d="M 187.460938 120.640625 C 187.460938 120.640625 185.527344 120.582031 184.949219 120.164062 C 184.367188 119.75 181.988281 119.25 181.835938 119.921875 C 181.683594 120.589844 178.9375 123.246094 181.113281 123.257812 C 183.292969 123.269531 186.175781 122.90625 186.757812 122.558594 C 187.335938 122.207031 187.460938 120.640625 187.460938 120.640625 Z M 187.460938 120.640625 "/>
<use xlink:href="#surface17" mask="url(#mask4)"/>
<path style=" stroke:none;fill-rule:nonzero;fill:rgb(32.54902%,75.686275%,87.058824%);fill-opacity:1;" d="M 129.871094 57.984375 C 128.71875 57.589844 127.554688 57.21875 126.386719 56.882812 C 126.578125 56.089844 126.757812 55.292969 126.921875 54.492188 C 129.5625 41.621094 127.835938 31.25 121.945312 27.835938 C 116.300781 24.5625 107.066406 27.976562 97.734375 36.136719 C 96.816406 36.945312 95.917969 37.773438 95.039062 38.621094 C 94.453125 38.054688 93.851562 37.5 93.246094 36.957031 C 83.472656 28.230469 73.679688 24.554688 67.789062 27.980469 C 62.148438 31.261719 60.472656 41.011719 62.851562 53.210938 C 63.085938 54.417969 63.351562 55.621094 63.652344 56.8125 C 62.265625 57.210938 60.925781 57.632812 59.644531 58.082031 C 48.1875 62.089844 40.867188 68.394531 40.867188 74.921875 C 40.867188 81.667969 48.722656 88.429688 60.660156 92.53125 C 61.628906 92.863281 62.605469 93.167969 63.585938 93.453125 C 63.269531 94.738281 62.984375 96.03125 62.738281 97.335938 C 60.472656 109.324219 62.242188 118.84375 67.867188 122.105469 C 73.679688 125.476562 83.4375 122.007812 92.933594 113.664062 C 93.683594 113.003906 94.4375 112.304688 95.195312 111.570312 C 96.148438 112.492188 97.121094 113.386719 98.121094 114.253906 C 107.324219 122.210938 116.410156 125.429688 122.03125 122.15625 C 127.835938 118.777344 129.722656 108.550781 127.273438 96.113281 C 127.089844 95.160156 126.871094 94.191406 126.625 93.203125 C 127.308594 93 127.980469 92.789062 128.636719 92.570312 C 141.046875 88.4375 149.121094 81.757812 149.121094 74.921875 C 149.121094 68.367188 141.566406 62.03125 129.875 57.984375 Z M 129.871094 57.984375 "/>
<path style=" stroke:none;fill-rule:nonzero;fill:rgb(100%,100%,100%);fill-opacity:1;" d="M 127.179688 88.160156 C 126.585938 88.355469 125.980469 88.546875 125.359375 88.730469 C 140.742188 124.917969 135.5 166.628906 111.644531 197.832031 C 112.75 198.152344 113.828125 198.492188 114.863281 198.851562 C 124.878906 202.316406 130.992188 207.441406 130.992188 211.394531 C 130.992188 215.59375 124.390625 221.058594 113.675781 224.628906 Z M 122.734375 97.015625 C 123.816406 102.515625 123.96875 107.488281 123.253906 111.375 C 122.609375 114.867188 121.316406 117.195312 119.710938 118.128906 C 116.300781 120.113281 109.003906 117.535156 101.136719 110.726562 C 100.234375 109.945312 99.328125 109.113281 98.414062 108.234375 C 98.128906 63.894531 124.519531 23.78125 165.210938 6.679688 C 205.90625 -10.417969 252.84375 -1.113281 284.03125 30.238281 C 315.21875 61.589844 324.476562 108.773438 307.46875 149.683594 C 290.457031 190.589844 250.550781 217.117188 206.445312 216.832031 C 206.667969 217.726562 206.863281 218.601562 207.03125 219.457031 Z M 77.769531 117.789062 C 74.4375 118.972656 71.78125 119.007812 70.179688 118.078125 C 66.765625 116.097656 65.34375 108.445312 67.28125 98.203125 C 67.515625 96.992188 67.777344 95.789062 68.070312 94.589844 C 69.929688 34.992188 118.851562 -12.171875 178.160156 -11.546875 C 237.472656 -10.925781 285.402344 37.257812 286.019531 96.878906 C 286.640625 156.5 239.722656 205.679688 180.4375 207.546875 C 179.765625 208.203125 179.078125 208.839844 178.375 209.457031 C 174.175781 213.148438 169.964844 215.761719 166.257812 217.082031 Z M 62.15625 88.132812 C 56.878906 86.320312 52.519531 83.960938 49.53125 81.390625 C 46.847656 79.078125 45.492188 76.785156 45.492188 74.921875 C 45.492188 70.960938 51.367188 65.90625 61.167969 62.472656 C 62.398438 62.039062 63.640625 61.648438 64.894531 61.292969 C 65.78125 0.113281 115.523438 -48.933594 176.390625 -48.636719 C 237.257812 -48.339844 286.527344 1.1875 286.824219 62.375 C 287.117188 123.5625 238.332031 173.570312 177.46875 174.460938 C 176.570312 174.203125 175.679688 173.921875 174.796875 173.621094 Z M 67.390625 52.316406 C 65.355469 41.867188 66.707031 33.980469 70.105469 32.003906 C 73.726562 29.902344 81.734375 32.902344 90.175781 40.4375 C 90.71875 40.917969 91.257812 41.421875 91.800781 41.941406 C 116.074219 74.804688 120.457031 118.402344 103.214844 155.480469 C 102.9375 154.371094 102.6875 153.253906 102.46875 152.128906 Z M 114.09375 63.90625 C 113.035156 62.070312 111.9375 60.253906 110.800781 58.464844 C 114.257812 58.90625 117.566406 59.484375 120.671875 60.199219 C 138.441406 18.710938 181.886719 -5.433594 226.289062 1.503906 C 270.691406 8.445312 304.792969 44.710938 309.191406 89.667969 C 313.589844 134.621094 287.167969 176.871094 244.960938 192.371094 C 202.753906 207.871094 155.460938 192.699219 129.992188 155.480469 C 128.992188 153.574219 127.953125 151.6875 126.878906 149.820312 Z M 95.042969 45.265625 C 108.21875 3.980469 146.429688 -24.011719 189.5625 -23.96875 C 232.691406 -23.929688 270.851562 4.132812 283.949219 45.441406 C 297.046875 86.75 282.082031 131.835938 246.933594 156.960938 C 211.78125 182.082031 164.503906 181.488281 129.992188 155.480469 C 125.730469 155.28125 121.464844 155.28125 117.199219 155.480469 C 119.300781 152.695312 121.457031 150.101562 123.621094 147.753906 Z M 75.882812 63.9375 C 74.820312 65.792969 73.800781 67.667969 72.824219 69.566406 C 71.480469 66.355469 70.328125 63.199219 69.386719 60.152344 C 72.476562 59.449219 75.769531 58.890625 79.203125 58.457031 C 78.050781 60.257812 76.941406 62.085938 75.878906 63.9375 Z M 79.300781 91.71875 C 95.964844 46.347656 142.839844 19.757812 190.089844 28.867188 C 237.34375 37.976562 271.101562 80.117188 269.886719 128.464844 C 268.667969 176.816406 232.832031 217.1875 185.183594 223.882812 C 137.535156 230.582031 92.058594 201.644531 77.695312 155.480469 C 78.652344 152.382812 79.828125 149.15625 81.203125 145.875 C 82.183594 147.777344 83.207031 149.65625 84.273438 151.507812 C 85.355469 153.398438 86.488281 155.261719 87.664062 157.09375 Z M 95.175781 104.910156 C 92.980469 102.539062 90.792969 99.910156 88.660156 97.074219 C 90.734375 97.15625 92.84375 97.199219 94.996094 97.199219 C 97.203125 97.199219 99.378906 97.148438 101.527344 97.050781 C 109.710938 48.96875 151.59375 14.101562 200.109375 14.972656 C 248.625 15.84375 289.238281 52.199219 295.707031 100.542969 C 302.175781 148.886719 272.558594 194.734375 225.996094 208.460938 C 179.433594 222.1875 129.875 199.679688 109.347656 155.480469 Z M 117.242188 80.332031 C 139.605469 39.054688 187.851562 19.398438 232.492188 33.375 C 277.136719 47.355469 305.742188 91.078125 300.832031 137.820312 C 295.921875 184.5625 258.855469 221.3125 212.296875 225.609375 C 165.734375 229.902344 122.636719 200.546875 109.347656 155.480469 C 55.515625 155.003906 12.191406 110.875 12.429688 56.757812 C 12.664062 2.644531 56.375 -41.101562 110.207031 -41.101562 C 164.042969 -41.101562 207.75 2.644531 207.988281 56.757812 C 208.222656 110.875 164.902344 155.003906 111.070312 155.480469 C 112.214844 153.65625 113.320312 151.8125 114.390625 149.945312 C 115.480469 148.046875 116.527344 146.125 117.527344 144.179688 Z M 110.101562 83.777344 C 108.460938 86.636719 106.730469 89.445312 104.90625 92.199219 C 101.695312 92.429688 98.378906 92.546875 94.996094 92.546875 C 91.613281 92.546875 88.351562 92.445312 85.195312 92.238281 C 83.324219 89.492188 81.558594 86.683594 79.898438 83.800781 C 78.238281 80.921875 76.699219 78 75.28125 75.035156 C 76.707031 72.054688 78.242188 69.128906 79.886719 66.261719 C 81.527344 63.394531 83.277344 60.59375 85.132812 57.855469 C 88.355469 57.609375 91.652344 57.484375 94.992188 57.484375 C 98.328125 57.484375 101.648438 57.613281 104.867188 57.855469 C 106.703125 60.585938 108.445312 63.375 110.09375 66.230469 C 111.738281 69.082031 113.296875 71.992188 114.757812 74.960938 C 113.3125 77.953125 111.761719 80.886719 110.105469 83.769531 Z M 119.640625 31.863281 C 123.265625 33.964844 124.675781 42.441406 122.398438 53.554688 C 122.25 54.277344 122.085938 55 121.910156 55.71875 C 140.285156 90.085938 139.417969 131.621094 119.625 165.183594 C 120.4375 164.398438 121.265625 163.632812 122.113281 162.890625 C 130.105469 155.898438 137.574219 153.136719 140.976562 155.109375 Z M 119.640625 31.863281 "/>
<path style=" stroke:none;fill-rule:nonzero;fill:rgb(32.54902%,75.686275%,87.058824%);fill-opacity:1;" d="M 94.992188 65.203125 C 94.992188 59.835938 99.320312 55.484375 104.65625 55.484375 C 109.996094 55.484375 114.324219 59.835938 114.328125 65.203125 C 114.328125 70.570312 110 74.921875 104.660156 74.921875 "/>
<path style=" stroke:none;fill-rule:nonzero;fill:rgb(24.705882%,23.921569%,33.72549%);fill-opacity:1;" d="M 97.417969 3.570312 C 98.585938 3.570312 99.640625 4.28125 100.089844 5.371094 C 100.535156 6.457031 100.285156 7.707031 99.457031 8.539062 C 98.625 9.371094 97.378906 9.613281 96.300781 9.160156 C 95.21875 8.707031 94.519531 7.640625 94.523438 6.464844 Z M 97.417969 3.570312 "/>
<path style=" stroke:none;fill-rule:nonzero;fill:rgb(24.705882%,23.921569%,33.72549%);fill-opacity:1;" d="M 92.214844 4.304688 C 91.03125 29.902344 69.429688 49.691406 43.964844 48.503906 C 18.5 47.3125 -1.183594 25.597656 0 0 C 0 -1.605469 1.292969 -2.90625 2.890625 -2.90625 C 4.488281 -2.90625 5.78125 -1.605469 5.78125 0 C 5.78125 1.605469 4.488281 2.90625 2.890625 2.90625 Z M 90.910156 7.621094 L 98.65625 7.621094 L 98.65625 19.765625 L 90.910156 19.765625 Z M 90.910156 7.621094 "/>
<use xlink:href="#surface20" mask="url(#mask5)"/>
<path style=" stroke:none;fill-rule:nonzero;fill:rgb(62.745098%,38.039216%,41.568627%);fill-opacity:1;" d="M 78.671875 51.691406 C 78.671875 51.691406 77.847656 53.976562 75.886719 54.285156 C 73.925781 54.597656 72.789062 55.117188 72.789062 55.117188 L 77.433594 58.128906 L 79.914062 57.816406 C 79.914062 57.816406 80.222656 54.597656 81.257812 53.871094 C 82.289062 53.144531 78.671875 51.691406 78.671875 51.691406 Z M 112.234375 51.691406 C 112.234375 51.691406 113.0625 53.976562 115.023438 54.285156 C 116.984375 54.597656 118.121094 55.117188 118.121094 55.117188 L 113.472656 58.128906 L 110.996094 57.816406 C 110.996094 57.816406 110.6875 54.597656 109.652344 53.871094 C 108.621094 53.144531 112.234375 51.691406 112.234375 51.691406 Z M 112.234375 51.691406 "/>
<path style=" stroke:none;fill-rule:nonzero;fill:rgb(24.705882%,23.921569%,33.72549%);fill-opacity:1;" d="M 89.621094 31.550781 C 89.621094 31.550781 88.382812 32.171875 87.96875 33.421875 C 87.96875 33.421875 85.703125 34.148438 84.457031 36.117188 C 84.457031 36.117188 82.90625 37.78125 82.699219 38.609375 C 82.496094 39.441406 80.125 44.421875 80.125 44.421875 C 80.125 44.421875 77.75 52.210938 76.511719 53.039062 C 76.511719 53.039062 80.4375 52.210938 81.160156 56.15625 C 81.160156 56.15625 82.085938 56.15625 83.121094 52.523438 C 84.152344 48.886719 86.632812 44.421875 86.632812 44.421875 C 86.632812 44.421875 87.457031 41.308594 88.179688 40.789062 C 88.902344 40.269531 90.039062 37.882812 91.074219 38.515625 C 92.105469 39.144531 98.921875 38.410156 98.921875 38.410156 C 98.921875 38.410156 102.945312 40.273438 103.046875 41.515625 C 103.148438 42.761719 103.871094 42.867188 103.972656 43.90625 C 104.078125 44.945312 107.898438 53.144531 107.898438 53.144531 C 107.898438 53.144531 108.621094 55.421875 108.828125 55.945312 C 108.828125 55.945312 111.09375 50.445312 114.097656 53.558594 C 114.097656 53.558594 113.992188 51.480469 113.0625 50.230469 C 112.136719 48.980469 108.105469 39.226562 108.105469 39.226562 C 108.105469 39.226562 107.691406 37.773438 107.28125 37.359375 C 106.867188 36.945312 103.664062 33.621094 102.527344 33.621094 C 102.527344 33.621094 101.910156 32.066406 101.1875 31.855469 Z M 80.324219 57.089844 C 82.355469 56.792969 84.363281 57.765625 85.398438 59.550781 C 86.429688 61.335938 86.28125 63.570312 85.019531 65.199219 C 83.757812 66.832031 81.640625 67.527344 79.664062 66.960938 C 78.570312 66.515625 77.257812 66.183594 76.859375 66.929688 C 76.136719 68.28125 85.636719 71.601562 85.636719 71.601562 C 85.636719 71.601562 86.878906 70.875 86.773438 68.902344 Z M 110.585938 57.089844 C 113.296875 54.363281 117.691406 54.363281 120.402344 57.089844 C 123.113281 59.8125 123.113281 64.234375 120.402344 66.960938 C 121.5 66.515625 122.808594 66.183594 123.207031 66.929688 C 123.929688 68.28125 114.429688 71.601562 114.429688 71.601562 C 114.429688 71.601562 113.191406 70.875 113.296875 68.902344 Z M 110.585938 57.089844 "/>
<path style=" stroke:none;fill-rule:nonzero;fill:rgb(62.745098%,38.039216%,41.568627%);fill-opacity:1;" d="M 92.996094 14.476562 C 92.957031 14.835938 92.839844 15.226562 92.53125 15.417969 C 92.28125 15.574219 91.964844 15.5625 91.675781 15.621094 C 92.308594 15.78125 92.824219 16.238281 93.058594 16.847656 C 93.292969 17.457031 93.21875 18.144531 92.855469 18.6875 L 99.6875 25.554688 C 99.988281 26.417969 100.355469 27.273438 100.921875 27.988281 C 100.253906 48.273438 83.351562 64.175781 63.171875 63.503906 C 42.992188 62.832031 27.175781 45.84375 27.84375 25.554688 C 28.210938 25.855469 28.589844 26.164062 29.042969 26.304688 C 30.46875 27.410156 30.925781 29.371094 30.132812 30.996094 C 29.339844 32.621094 27.523438 33.464844 25.777344 33.007812 C 24.035156 32.554688 22.851562 30.929688 22.945312 29.121094 C 23.042969 27.316406 24.386719 25.824219 26.167969 25.554688 C 26.558594 25.574219 26.976562 25.585938 27.316406 25.390625 C 27.839844 25.085938 27.996094 24.417969 28.28125 23.878906 C 28.519531 23.425781 28.878906 23.039062 29.101562 22.574219 C 31.75 23.597656 33.066406 26.582031 32.054688 29.242188 C 31.039062 31.902344 28.070312 33.234375 25.421875 32.214844 C 22.777344 31.199219 21.449219 28.21875 22.457031 25.554688 L 22.9375 23.402344 C 23.113281 22.621094 23.273438 21.738281 22.835938 21.066406 C 22.914062 21.242188 22.855469 21.445312 22.703125 21.554688 L 25.566406 24.433594 L 26.25 24.433594 C 26.285156 24.347656 26.367188 24.304688 26.445312 24.324219 C 26.523438 24.347656 26.582031 24.429688 26.582031 24.523438 C 26.582031 24.617188 26.523438 24.699219 26.445312 24.71875 C 26.367188 24.738281 26.285156 24.695312 26.25 24.609375 C 26.289062 24.664062 26.371094 24.609375 26.453125 24.476562 C 26.53125 24.339844 26.589844 24.164062 26.589844 24.046875 C 26.589844 23.929688 26.53125 23.902344 26.453125 23.984375 C 26.371094 24.066406 26.289062 24.230469 26.25 24.386719 C 26.226562 24.300781 26.175781 24.21875 26.097656 24.148438 C 31.605469 24.171875 36.050781 28.679688 36.027344 34.214844 C 36.003906 39.75 31.523438 44.21875 26.015625 44.195312 C 25.769531 44.183594 25.398438 44.082031 25.226562 44.300781 C 25.054688 44.523438 25.109375 45.023438 25.089844 45.285156 Z M 92.996094 14.476562 "/>
<use xlink:href="#surface23" mask="url(#mask6)"/>
<path style=" stroke:none;fill-rule:nonzero;fill:rgb(21.960784%,82.745098%,62.352941%);fill-opacity:1;" d="M 91.597656 15.714844 C 87.28125 15.769531 83.738281 12.292969 83.683594 7.953125 C 83.628906 3.617188 87.085938 0.0546875 91.402344 0 C 90.40625 -0.0234375 89.339844 0.320312 88.765625 1.136719 C 89.691406 1.226562 90.507812 1.792969 90.917969 2.636719 C 91.324219 3.480469 91.265625 4.476562 90.761719 5.265625 L 96.335938 5.265625 C 96.613281 5.789062 96.621094 6.417969 96.695312 7.015625 C 96.871094 8.4375 97.472656 9.773438 97.710938 11.1875 C 97.949219 12.601562 97.742188 14.238281 96.632812 15.136719 C 96.449219 15.285156 96.222656 15.445312 96.207031 15.6875 C 96.179688 16.070312 96.675781 16.230469 97.058594 16.269531 C 98.199219 16.378906 99.371094 16.484375 100.476562 16.1875 C 100.9375 16.066406 101.378906 15.875 101.847656 15.789062 C 103.03125 15.566406 104.222656 16.023438 105.40625 16.242188 C 99.765625 9.816406 100.214844 0.046875 106.429688 -5.824219 C 112.640625 -11.691406 122.371094 -11.542969 128.398438 -5.480469 C 134.429688 0.582031 134.578125 10.359375 128.738281 16.605469 C 122.898438 22.851562 113.183594 23.304688 106.789062 17.632812 L 106.789062 17.9375 C 106.75 17.78125 106.675781 17.65625 106.585938 17.585938 C 105.984375 16.839844 105.804688 15.851562 105.640625 14.910156 L 105.089844 11.738281 C 104.796875 10.042969 104.523438 8.199219 105.320312 6.679688 C 105.894531 5.585938 106.953125 4.8125 107.554688 3.738281 C 111.359375 32.5625 91.199219 59.027344 62.523438 62.851562 C 33.851562 66.675781 7.519531 46.410156 3.71875 17.585938 C 3.625 17.042969 3.140625 16.65625 2.640625 16.429688 C 2.660156 16.820312 2.621094 17.207031 2.53125 17.585938 C 2.546875 18.34375 2.355469 19.109375 2.234375 19.863281 L 2.023438 21.085938 C -3.03125 14.539062 -2.085938 5.15625 4.171875 -0.246094 C 10.425781 -5.644531 19.792969 -5.164062 25.472656 0.847656 C 31.148438 6.859375 31.140625 16.289062 25.449219 22.289062 C 19.761719 28.289062 10.390625 28.75 4.148438 23.335938 L 6.136719 25.339844 L 10.113281 25.339844 C 10.121094 24.429688 10.207031 23.4375 10.308594 23.097656 C 10.410156 22.761719 10.492188 23.203125 10.492188 24.09375 C 10.492188 24.984375 10.410156 26 10.308594 26.386719 C 10.207031 26.769531 10.121094 26.382812 10.113281 25.515625 C 11.9375 26.136719 13.453125 26.398438 13.5 26.101562 C 13.546875 25.800781 12.109375 25.054688 10.289062 24.433594 C 10.175781 24.390625 10.078125 24.285156 10.003906 24.125 C 12.671875 24.253906 14.726562 26.53125 14.597656 29.210938 C 14.472656 31.890625 12.207031 33.957031 9.539062 33.828125 C 9.488281 33.488281 9.46875 33.144531 9.445312 32.800781 C 9.378906 31.785156 9.378906 30.664062 9.179688 29.691406 Z M 91.597656 15.714844 "/>
<path style=" stroke:none;fill-rule:nonzero;fill:rgb(62.745098%,38.039216%,41.568627%);fill-opacity:1;" d="M 90.550781 35.808594 C 90.550781 35.808594 90.136719 41.308594 92.71875 42.242188 C 95.300781 43.175781 93.027344 37.675781 93.027344 37.675781 L 92.199219 36.015625 Z M 99.328125 35.808594 C 99.328125 35.808594 99.738281 41.308594 97.160156 42.242188 C 94.578125 43.175781 96.847656 37.675781 96.847656 37.675781 L 97.675781 36.015625 Z M 99.328125 35.808594 "/>
<use xlink:href="#surface26" mask="url(#mask7)"/>
<path style=" stroke:none;fill-rule:nonzero;fill:rgb(21.960784%,82.745098%,62.352941%);fill-opacity:1;" d="M 88.070312 17.328125 L 87.246094 18.679688 C 87.246094 18.679688 87.96875 23.351562 88.070312 24.179688 C 81.429688 48.628906 56.328125 63.035156 32.007812 56.355469 C 7.6875 49.679688 -6.640625 24.449219 0 0 C 0 0 0.101562 2.492188 0.101562 3.425781 C 0.101562 4.359375 0.625 5.917969 0.625 5.917969 C -0.273438 11.503906 -5.148438 15.558594 -10.777344 15.40625 C -16.40625 15.25 -21.054688 10.933594 -21.648438 5.304688 C -22.242188 -0.324219 -18.601562 -5.527344 -13.132812 -6.867188 C -7.660156 -8.207031 -2.046875 -5.273438 0 0 C 0.414062 1.144531 0.828125 2.492188 0.828125 2.492188 C 0.828125 2.492188 1.351562 1.039062 3.410156 3.21875 C 2.523438 3.476562 1.601562 2.964844 1.34375 2.078125 C 1.085938 1.1875 1.59375 0.257812 2.480469 0 C 2.480469 0 1.859375 -2.800781 1.859375 -4.257812 C 1.859375 -5.710938 0.722656 -12.660156 0.722656 -12.660156 C 0.722656 -12.660156 -0.015625 -20.558594 -2.496094 -18.582031 Z M 88.070312 17.328125 "/>
<use xlink:href="#surface29" mask="url(#mask8)"/>
<path style=" stroke:none;fill-rule:nonzero;fill:rgb(21.960784%,82.745098%,62.352941%);fill-opacity:1;" d="M 102.011719 16.386719 L 102.535156 17.007812 C 102.535156 17.007812 103.144531 20.542969 101.800781 25.003906 L 101.386719 29.054688 C 101.386719 29.054688 100.664062 32.480469 100.5625 33.308594 C 100.460938 34.140625 100.457031 34.246094 100.253906 34.554688 C 90.757812 62.386719 60.621094 77.210938 32.9375 67.667969 C 5.253906 58.125 -9.492188 27.828125 0 0 L 99.636719 37.363281 C 99.636719 37.363281 98.707031 36.222656 96.847656 37.675781 C 96.847656 37.675781 96.324219 36.84375 96.746094 36.117188 C 97.164062 35.390625 97.160156 35.078125 97.054688 34.875 C 96.953125 34.667969 97.46875 33.625 97.46875 33.421875 C 97.46875 33.214844 98.191406 28.4375 98.191406 28.4375 C 98.191406 28.4375 98.5 23.765625 98.8125 22.207031 C 99.121094 20.648438 98.914062 15.976562 98.914062 15.976562 C 98.914062 15.976562 100.566406 14.835938 102.011719 16.386719 Z M 102.011719 16.386719 "/>
<path style=" stroke:none;fill-rule:nonzero;fill:rgb(62.745098%,38.039216%,41.568627%);fill-opacity:1;" d="M 99.222656 10.789062 C 99.222656 13.082031 97.375 14.941406 95.09375 14.941406 C 92.8125 14.941406 90.960938 13.082031 90.960938 10.789062 C 90.960938 8.496094 92.8125 6.632812 95.09375 6.632812 C 97.375 6.632812 99.222656 8.496094 99.222656 10.789062 Z M 99.222656 10.789062 "/>
<use xlink:href="#surface32" mask="url(#mask9)"/>
<path style=" stroke:none;fill-rule:nonzero;fill:rgb(24.705882%,23.921569%,33.72549%);fill-opacity:1;" d="M 95.09375 4.765625 C 95.09375 4.765625 87.140625 1.964844 89.105469 15.5625 C 89.105469 15.5625 90.859375 16.703125 92.199219 15.976562 C 92.199219 15.976562 91.273438 6.53125 94.886719 6.945312 C 98.5 7.359375 97.882812 15.773438 97.882812 15.773438 C 97.882812 15.773438 99.945312 16.394531 100.566406 15.246094 C 101.1875 14.097656 100.359375 2.90625 95.09375 4.765625 Z M 95.09375 4.765625 "/>
<use xlink:href="#surface35" mask="url(#mask10)"/>
<path style="fill:none;stroke-width:4;stroke-linecap:butt;stroke-linejoin:miter;stroke:rgb(24.705882%,23.921569%,33.72549%);stroke-opacity:1;stroke-miterlimit:10;" d="M 826.739152 672.953674 C 831.470936 664.186493 826.088812 653.41156 819.899369 645.581329 C 813.732351 637.751099 806.174951 629.586243 806.33193 619.592102 C 806.578611 605.247833 821.783112 596.77066 833.960168 589.163513 C 671.263034 656.757812 484.570596 579.682465 416.980084 416.987671 C 349.389573 254.292877 426.466078 67.594299 589.163212 0 C 592.168232 -3.056244 595.038698 -6.313263 596.787889 -10.217224 C 599.299547 -15.81662 599.23227 -22.219116 599.075291 -28.331604 C 598.559505 -48.810669 597.550356 -69.245117 596.070272 -89.679565 " transform="matrix(0.174188,0,0,0.175103,0,0)"/>
<path style=" stroke:none;fill-rule:nonzero;fill:rgb(21.960784%,82.745098%,62.352941%);fill-opacity:1;" d="M 154.808594 83.785156 C 131.792969 84.671875 112.417969 66.632812 111.539062 43.496094 C 110.65625 20.359375 128.601562 0.886719 151.617188 0 L 150.746094 1.734375 L 150.773438 -0.367188 C 148.988281 -1.410156 148.324219 -3.667969 149.253906 -5.519531 C 150.183594 -7.371094 152.386719 -8.171875 154.28125 -7.347656 C 156.171875 -6.523438 157.097656 -4.359375 156.394531 -2.414062 C 155.6875 -0.464844 153.59375 0.59375 151.617188 0 Z M 147.859375 110.292969 C 117.5625 109.25 93.84375 83.714844 94.878906 53.257812 C 95.917969 22.800781 121.320312 -1.042969 151.617188 0 L 149.179688 1.992188 L 151.855469 1.367188 C 150.054688 2.046875 148.03125 1.300781 147.101562 -0.390625 C 146.167969 -2.078125 146.609375 -4.203125 148.136719 -5.375 C 149.660156 -6.550781 151.8125 -6.421875 153.191406 -5.074219 C 154.570312 -3.726562 154.757812 -1.566406 153.632812 0 Z M 145.9375 102.6875 C 117.726562 104.808594 93.148438 83.542969 91.039062 55.183594 C 88.929688 26.828125 110.085938 2.121094 138.296875 0 L 138.277344 1.613281 L 139.15625 -0.136719 L 139.167969 -0.136719 C 141.230469 -0.222656 143.003906 1.328125 143.207031 3.394531 C 143.410156 5.460938 141.972656 7.328125 139.929688 7.648438 C 137.886719 7.96875 135.953125 6.628906 135.519531 4.597656 C 135.085938 2.566406 136.304688 0.550781 138.296875 0 Z M 155.394531 96.363281 C 128.925781 101.109375 103.636719 83.386719 98.914062 56.773438 C 94.195312 30.164062 111.824219 4.746094 138.296875 0 L 137.597656 1.894531 L 139.015625 0.53125 C 137.964844 -1.039062 138.179688 -3.140625 139.527344 -4.460938 C 140.875 -5.78125 142.96875 -5.945312 144.503906 -4.851562 C 146.039062 -3.753906 146.574219 -1.714844 145.78125 0 Z M 155.394531 96.363281 "/>
<use xlink:href="#surface38" mask="url(#mask11)"/>
<path style=" stroke:none;fill-rule:nonzero;fill:rgb(39.607843%,38.823529%,50.196078%);fill-opacity:1;" d="M 138.132812 116.066406 C 138.132812 116.066406 141.207031 115.972656 142.136719 115.308594 C 143.070312 114.644531 146.867188 113.851562 147.097656 114.917969 C 147.328125 115.980469 151.71875 120.207031 148.246094 120.234375 C 144.777344 120.265625 140.179688 119.691406 139.257812 119.125 C 138.332031 118.558594 138.132812 116.066406 138.132812 116.066406 Z M 138.132812 116.066406 "/>
<use xlink:href="#surface41" mask="url(#mask12)"/>
<path style=" stroke:none;fill-rule:nonzero;fill:rgb(94.901961%,94.901961%,94.901961%);fill-opacity:1;" d="M 56.261719 7.503906 L 53.082031 9.53125 L 55.015625 6.003906 C 53.648438 5.761719 52.601562 4.644531 52.445312 3.257812 C 52.285156 1.875 53.050781 0.546875 54.328125 0 L 54.273438 0 C 56.347656 0.0117188 58.015625 1.707031 58.007812 3.789062 C 58.003906 5.871094 56.320312 7.558594 54.25 7.558594 C 52.179688 7.558594 50.5 5.871094 50.492188 3.789062 C 50.484375 1.707031 52.15625 0.0117188 54.226562 0 L 53.148438 0.6875 L 53.609375 -0.15625 C 55.585938 0 57.117188 1.644531 57.148438 3.636719 C 57.179688 5.628906 55.695312 7.316406 53.726562 7.53125 C 51.753906 7.75 49.941406 6.425781 49.542969 4.472656 C 49.140625 2.523438 50.285156 0.585938 52.179688 0 L 50.25 1.226562 L 51.472656 -1 C 50.34375 -2.363281 48.824219 -3.199219 47.148438 -3.199219 C 45.144531 -3.199219 43.359375 -1.996094 42.207031 -0.128906 C 40.425781 -0.710938 39.359375 -2.535156 39.71875 -4.382812 C 40.078125 -6.226562 41.753906 -7.511719 43.617188 -7.375 C 45.484375 -7.238281 46.957031 -5.722656 47.042969 -3.84375 C 47.132812 -1.964844 45.8125 -0.316406 43.96875 0 L 43.859375 0 C 41.648438 0 39.855469 2.523438 39.855469 5.636719 C 39.855469 8.75 41.648438 11.269531 43.859375 11.269531 C 40.765625 21.890625 29.691406 27.976562 19.128906 24.863281 C 8.5625 21.75 2.511719 10.617188 5.605469 0 C 7.050781 -0.753906 8.945312 -0.769531 10.457031 -0.09375 C 10.484375 2.835938 8.144531 5.230469 5.230469 5.257812 C 2.316406 5.28125 -0.0664062 2.929688 -0.09375 0 C 1.40625 -0.660156 3.28125 -0.644531 4.714844 0.09375 C 5.703125 1.34375 5.554688 3.144531 4.375 4.210938 C 3.199219 5.277344 1.398438 5.242188 0.265625 4.128906 C -0.867188 3.011719 -0.941406 1.207031 0.09375 0 C 2.308594 0 4.101562 -2.523438 4.101562 -5.636719 C 7.539062 -4.242188 9.339844 -0.429688 8.238281 3.128906 C 7.132812 6.6875 3.496094 8.800781 -0.121094 7.980469 C -3.738281 7.164062 -6.125 3.691406 -5.605469 0 Z M 56.261719 7.503906 "/>
<use xlink:href="#surface44" mask="url(#mask13)"/>
<path style=" stroke:none;fill-rule:nonzero;fill:rgb(94.901961%,94.901961%,94.901961%);fill-opacity:1;" d="M 139.363281 11.628906 L 137.78125 12.640625 L 138.746094 10.890625 C 135.753906 10.988281 133.25 8.628906 133.15625 5.621094 C 133.058594 2.613281 135.40625 0.0976562 138.398438 0 L 138.371094 0 C 139.410156 0.0078125 140.242188 0.855469 140.242188 1.894531 C 140.238281 2.9375 139.394531 3.777344 138.359375 3.777344 C 137.324219 3.777344 136.484375 2.9375 136.480469 1.894531 C 136.476562 0.855469 137.3125 0.0078125 138.347656 0 L 137.808594 0.351562 L 138.035156 -0.0820312 C 139.023438 -0.00390625 139.789062 0.8125 139.808594 1.804688 C 139.824219 2.800781 139.085938 3.644531 138.105469 3.753906 C 137.121094 3.863281 136.21875 3.207031 136.015625 2.234375 C 135.8125 1.261719 136.378906 0.292969 137.324219 0 L 136.363281 0.613281 L 136.972656 -0.496094 C 136.648438 -0.253906 136.273438 -0.0859375 135.878906 0 C 134.878906 0 133.988281 0.597656 133.414062 1.53125 C 132.699219 1.976562 131.769531 1.875 131.164062 1.289062 C 130.558594 0.699219 130.425781 -0.226562 130.847656 -0.960938 C 131.265625 -1.695312 132.125 -2.054688 132.9375 -1.824219 C 133.75 -1.597656 134.304688 -0.847656 134.285156 0 L 134.230469 0 C 133.125 0 132.230469 1.257812 132.230469 2.800781 C 132.230469 4.34375 133.125 5.613281 134.230469 5.613281 C 135.027344 4.8125 136.320312 4.8125 137.117188 5.613281 C 137.910156 6.414062 137.910156 7.710938 137.117188 8.511719 L 137.117188 10.578125 L 137.164062 12.085938 C 138.265625 12.085938 139.160156 10.832031 139.160156 9.277344 C 139.089844 10.4375 138.457031 11.484375 137.46875 12.085938 Z M 139.363281 11.628906 "/>
<use xlink:href="#surface47" mask="url(#mask14)"/>
<path style=" stroke:none;fill-rule:nonzero;fill:rgb(94.901961%,94.901961%,94.901961%);fill-opacity:1;" d="M 35.59375 37.796875 L 38.148438 39.421875 L 36.601562 36.59375 C 26.546875 46.753906 10.207031 46.800781 0.0976562 36.695312 C -10.007812 26.589844 -10.050781 10.160156 0 0 L 0.0390625 0 C 1.679688 0.0117188 3 1.351562 2.996094 3 C 2.988281 4.648438 1.660156 5.980469 0.0195312 5.980469 C -1.621094 5.980469 -2.949219 4.648438 -2.953125 3 C -2.960938 1.351562 -1.640625 0.0117188 0 0 L 0.863281 0.550781 L 0.488281 -0.125 C 2.125 -0.410156 3.691406 0.65625 4.039062 2.289062 C 4.390625 3.921875 3.394531 5.542969 1.785156 5.957031 C 0.175781 6.375 -1.472656 5.4375 -1.953125 3.839844 C -2.433594 2.242188 -1.570312 0.546875 0 0 L 1.546875 0.984375 L 0.578125 -0.800781 C 1.484375 -1.890625 2.703125 -2.550781 4.042969 -2.550781 C 5.648438 -2.550781 7.078125 -1.589844 8.003906 -0.101562 C 8.03125 2.148438 6.238281 3.996094 4.003906 4.023438 C 1.765625 4.050781 -0.0703125 2.25 -0.0976562 0 L -0.0117188 0 C 1.761719 0 3.199219 2.019531 3.199219 4.515625 C 3.199219 7.007812 1.761719 9.03125 -0.0117188 9.03125 C 0.988281 8.804688 2.023438 9.242188 2.5625 10.117188 C 3.105469 10.992188 3.039062 12.117188 2.394531 12.917969 C 1.753906 13.722656 0.675781 14.03125 -0.292969 13.6875 L 3.761719 17.761719 L 8.402344 17.761719 L 8.402344 17.9375 C 6.628906 17.9375 5.191406 15.917969 5.191406 13.421875 C 4.863281 10.519531 6.753906 7.832031 9.585938 7.175781 C 12.417969 6.523438 15.285156 8.109375 16.25 10.867188 C 17.214844 13.621094 15.96875 16.664062 13.351562 17.9375 Z M 35.59375 37.796875 "/>
<use xlink:href="#surface50" mask="url(#mask15)"/>
</g>
</svg>
