<?xml version="1.0" encoding="UTF-8"?>
<svg xmlns="http://www.w3.org/2000/svg" xmlns:xlink="http://www.w3.org/1999/xlink" width="187px" height="128px" viewBox="0 0 187 128" version="1.1">
<defs>
<filter id="alpha" filterUnits="objectBoundingBox" x="0%" y="0%" width="100%" height="100%">
  <feColorMatrix type="matrix" in="SourceGraphic" values="0 0 0 0 1 0 0 0 0 1 0 0 0 0 1 0 0 0 1 0"/>
</filter>
<mask id="mask0">
  <g filter="url(#alpha)">
<rect x="0" y="0" width="187" height="128" style="fill:rgb(0%,0%,0%);fill-opacity:0.101961;stroke:none;"/>
  </g>
</mask>
<clipPath id="clip1">
  <rect x="0" y="0" width="187" height="128"/>
</clipPath>
<g id="surface5" clip-path="url(#clip1)">
<path style=" stroke:none;fill-rule:nonzero;fill:rgb(0%,0%,0%);fill-opacity:1;" d="M 151.367188 69.003906 C 151.210938 69.351562 151.050781 69.695312 150.882812 70.035156 C 149.9375 70.140625 148.941406 70.214844 147.894531 70.261719 C 147.027344 70.300781 146.136719 70.320312 145.222656 70.320312 C 137.265625 70.320312 127.6875 68.847656 117.902344 66.101562 C 106.996094 63.039062 97.132812 58.757812 90.121094 54.042969 C 89.882812 53.882812 89.648438 53.722656 89.417969 53.5625 C 89.445312 53.183594 89.476562 52.8125 89.511719 52.4375 C 89.886719 52.703125 90.269531 52.96875 90.664062 53.234375 C 97.589844 57.894531 107.355469 62.132812 118.164062 65.164062 C 127.863281 67.890625 137.351562 69.347656 145.21875 69.347656 C 146.117188 69.347656 146.996094 69.328125 147.851562 69.289062 C 149.09375 69.234375 150.265625 69.136719 151.367188 69.003906 Z M 151.367188 69.003906 "/>
</g>
<mask id="mask1">
  <g filter="url(#alpha)">
<rect x="0" y="0" width="187" height="128" style="fill:rgb(0%,0%,0%);fill-opacity:0.101961;stroke:none;"/>
  </g>
</mask>
<clipPath id="clip2">
  <rect x="0" y="0" width="187" height="128"/>
</clipPath>
<g id="surface8" clip-path="url(#clip2)">
<path style=" stroke:none;fill-rule:nonzero;fill:rgb(0%,0%,0%);fill-opacity:1;" d="M 33.460938 27.703125 C 33.460938 27.703125 32.6875 32.046875 34.710938 32.335938 C 36.734375 32.625 38.757812 33.496094 38.855469 34.074219 C 38.953125 34.652344 30.953125 40.828125 30.953125 40.828125 L 26.039062 39.285156 C 26.039062 39.285156 21.125 38.03125 21.320312 37.066406 C 21.511719 36.101562 21.898438 34.75 21.898438 34.75 C 21.898438 34.75 27.484375 33.589844 27.582031 31.855469 C 27.679688 30.117188 28.351562 27.316406 28.351562 27.316406 Z M 33.460938 27.703125 "/>
</g>
<mask id="mask2">
  <g filter="url(#alpha)">
<rect x="0" y="0" width="187" height="128" style="fill:rgb(0%,0%,0%);fill-opacity:0.101961;stroke:none;"/>
  </g>
</mask>
<clipPath id="clip3">
  <rect x="0" y="0" width="187" height="128"/>
</clipPath>
<g id="surface11" clip-path="url(#clip3)">
<path style=" stroke:none;fill-rule:nonzero;fill:rgb(0%,0%,0%);fill-opacity:1;" d="M 30.140625 57.984375 C 30.378906 58.3125 31.425781 59.683594 32.6875 60.613281 C 34.132812 61.675781 37.507812 59.164062 37.507812 59.164062 C 37.507812 59.164062 42.75 46.585938 43.421875 39.925781 C 32.242188 29.433594 30.839844 12.160156 40.179688 0 L 41.289062 4.488281 C 41.289062 4.488281 36.324219 8.492188 35.265625 10.132812 C 34.207031 11.773438 35.167969 17.273438 35.265625 18.144531 C 35.363281 19.011719 33.339844 19.300781 32.375 19.207031 C 31.410156 19.109375 31.21875 19.976562 30.351562 19.976562 C 29.933594 19.976562 29.019531 20.628906 28.1875 21.304688 Z M 30.140625 57.984375 "/>
</g>
<mask id="mask3">
  <g filter="url(#alpha)">
<rect x="0" y="0" width="187" height="128" style="fill:rgb(0%,0%,0%);fill-opacity:0.101961;stroke:none;"/>
  </g>
</mask>
<clipPath id="clip4">
  <rect x="0" y="0" width="187" height="128"/>
</clipPath>
<g id="surface14" clip-path="url(#clip4)">
<path style=" stroke:none;fill-rule:nonzero;fill:rgb(0%,0%,0%);fill-opacity:1;" d="M 17.691406 43.699219 C 24.894531 93.234375 -5.96875 140.355469 -54.199219 153.464844 C -102.433594 166.570312 -152.839844 141.535156 -171.621094 95.148438 C -190.398438 48.757812 -171.636719 -4.371094 -127.910156 -28.613281 C -84.1875 -52.851562 -29.273438 -40.570312 0 0 L -0.5625 -1.160156 C -0.5625 -1.160156 -0.582031 -1.03125 -0.625 -0.800781 Z M 17.175781 58.007812 C 17.273438 58.304688 18.421875 57.695312 19.527344 57.027344 C 19.515625 56.96875 19.503906 56.910156 19.488281 56.851562 C 19.199219 55.691406 21.222656 52.894531 21.222656 52.894531 L 22.570312 49.226562 L 22.28125 44.304688 L 18.5625 44.820312 C 19.632812 46.21875 20.980469 48.050781 21.320312 48.839844 C 21.898438 50.191406 20.742188 52.21875 19.390625 52.121094 C 18.042969 52.023438 16.984375 57.429688 17.175781 58.007812 Z M 17.175781 58.007812 "/>
</g>
</defs>
<g id="surface1">
<path style=" stroke:none;fill-rule:nonzero;fill:rgb(24.705882%,23.921569%,33.72549%);fill-opacity:1;" d="M 186.609375 72.144531 C 185.773438 79.3125 184.039062 85.066406 181.65625 89.65625 C 178.488281 95.769531 173.066406 98.234375 168.222656 100.8125 C 140.425781 100.289062 118.320312 77.296875 118.84375 49.457031 C 119.367188 21.621094 142.320312 -0.523438 170.113281 0 C 161.300781 3.0625 151.433594 2.25 143.6875 0.632812 C 142.988281 0.429688 142.292969 0.21875 141.601562 0 C 140.019531 -0.0703125 138.433594 -0.105469 136.851562 -0.105469 C 134.40625 -0.101562 90.402344 0.734375 79.6875 -20.992188 C 77.042969 -26.351562 75.226562 -32.898438 74.578125 -40.878906 C 72.734375 -63.441406 82.863281 -78.261719 95.933594 -87.945312 C 99.996094 -5.015625 133.878906 -4.246094 158.234375 14.558594 C 174.460938 27.082031 189.648438 46.039062 186.609375 72.144531 Z M 186.609375 72.144531 "/>
<path style=" stroke:none;fill-rule:nonzero;fill:rgb(94.901961%,94.901961%,94.901961%);fill-opacity:1;" d="M 154.871094 51.84375 C 148.015625 46.707031 137.273438 41.851562 125.402344 38.519531 C 114.597656 35.484375 104.054688 34.019531 95.71875 34.394531 L 95.675781 33.421875 C 104.109375 33.042969 114.761719 34.519531 125.664062 37.582031 C 137.644531 40.945312 148.503906 45.859375 155.453125 51.0625 Z M 154.871094 51.84375 "/>
<path style=" stroke:none;fill-rule:nonzero;fill:rgb(21.960784%,82.745098%,62.352941%);fill-opacity:1;" d="M 154.160156 55.796875 C 139.304688 59.578125 123.84375 52.378906 117.152344 38.566406 C 110.464844 24.753906 114.390625 8.132812 126.550781 -1.210938 C 138.714844 -10.558594 155.757812 -10.050781 167.34375 0 C 167.191406 0.347656 167.03125 0.691406 166.863281 1.035156 C 151.15625 -2.621094 140.523438 -17.28125 141.902344 -33.371094 C 143.285156 -49.457031 156.261719 -62.085938 172.359375 -63 C 188.457031 -63.914062 202.777344 -52.839844 205.96875 -37.011719 C 209.15625 -21.183594 200.246094 -5.410156 185.054688 0 C 167.15625 0 152.644531 -14.535156 152.644531 -32.460938 C 152.644531 -33.214844 152.671875 -33.957031 152.722656 -34.699219 C 152.746094 -35.074219 152.777344 -35.449219 152.816406 -35.820312 C 154.496094 -52.171875 168.289062 -64.925781 185.054688 -64.925781 C 202.953125 -64.925781 217.464844 -50.390625 217.464844 -32.460938 Z M 154.160156 55.796875 "/>
<use xlink:href="#surface5" mask="url(#mask0)"/>
<path style=" stroke:none;fill-rule:nonzero;fill:rgb(94.901961%,94.901961%,94.901961%);fill-opacity:1;" d="M 145.222656 69.542969 C 137.265625 69.542969 127.6875 68.070312 117.902344 65.324219 C 107 62.261719 97.132812 57.980469 90.121094 53.265625 C 82.964844 48.453125 79.609375 43.710938 80.675781 39.910156 C 81.738281 36.113281 87.066406 33.808594 95.675781 33.421875 L 95.71875 34.394531 C 91.699219 34.574219 88.421875 35.171875 85.980469 36.171875 C 83.542969 37.167969 82.070312 38.515625 81.609375 40.175781 C 81.144531 41.832031 81.703125 43.746094 83.265625 45.867188 C 84.832031 47.992188 87.320312 50.210938 90.664062 52.457031 C 97.589844 57.117188 107.355469 61.355469 118.164062 64.386719 C 127.863281 67.109375 137.351562 68.570312 145.21875 68.570312 C 146.117188 68.570312 146.996094 68.550781 147.847656 68.511719 C 151.871094 68.332031 155.148438 67.734375 157.589844 66.734375 C 160.027344 65.734375 161.496094 64.390625 161.960938 62.730469 C 162.792969 59.753906 160.277344 55.886719 154.871094 51.84375 L 155.453125 51.0625 C 158.234375 53.144531 160.292969 55.199219 161.570312 57.164062 C 162.941406 59.269531 163.386719 61.234375 162.894531 62.996094 C 161.832031 66.792969 156.503906 69.097656 147.894531 69.484375 C 147.027344 69.523438 146.136719 69.542969 145.222656 69.542969 Z M 145.222656 69.542969 "/>
<path style=" stroke:none;fill-rule:nonzero;fill:rgb(94.901961%,94.901961%,94.901961%);fill-opacity:1;" d="M 122.980469 17.109375 C 122.980469 17.3125 122.8125 17.480469 122.609375 17.480469 C 122.402344 17.480469 122.238281 17.3125 122.238281 17.109375 C 122.238281 16.902344 122.402344 16.738281 122.609375 16.738281 C 122.8125 16.738281 122.980469 16.902344 122.980469 17.109375 Z M 122.980469 17.109375 "/>
<path style=" stroke:none;fill-rule:nonzero;fill:rgb(94.901961%,94.901961%,94.901961%);fill-opacity:1;" d="M 73.710938 32.984375 C 73.710938 33.1875 73.546875 33.355469 73.339844 33.355469 C 73.132812 33.355469 72.96875 33.1875 72.96875 32.984375 C 72.96875 32.777344 73.132812 32.609375 73.339844 32.609375 C 73.546875 32.609375 73.710938 32.777344 73.710938 32.984375 Z M 73.710938 32.984375 "/>
<path style=" stroke:none;fill-rule:nonzero;fill:rgb(94.901961%,94.901961%,94.901961%);fill-opacity:1;" d="M 72.347656 58.027344 C 72.347656 58.234375 72.183594 58.402344 71.976562 58.402344 C 71.773438 58.402344 71.605469 58.234375 71.605469 58.027344 C 71.605469 57.824219 71.773438 57.65625 71.976562 57.65625 C 72.183594 57.65625 72.347656 57.824219 72.347656 58.027344 Z M 72.347656 58.027344 "/>
<path style=" stroke:none;fill-rule:nonzero;fill:rgb(94.901961%,94.901961%,94.901961%);fill-opacity:1;" d="M 147.988281 19.339844 C 147.988281 19.476562 147.875 19.589844 147.738281 19.589844 C 147.601562 19.589844 147.492188 19.476562 147.492188 19.339844 C 147.492188 19.203125 147.601562 19.09375 147.738281 19.09375 C 147.875 19.09375 147.988281 19.203125 147.988281 19.339844 Z M 147.988281 19.339844 "/>
<path style=" stroke:none;fill-rule:nonzero;fill:rgb(94.901961%,94.901961%,94.901961%);fill-opacity:1;" d="M 177.820312 54.308594 C 177.820312 54.445312 177.710938 54.558594 177.574219 54.558594 C 177.4375 54.558594 177.324219 54.445312 177.324219 54.308594 C 177.324219 54.171875 177.4375 54.0625 177.574219 54.0625 C 177.710938 54.0625 177.820312 54.171875 177.820312 54.308594 Z M 177.820312 54.308594 "/>
<path style=" stroke:none;fill-rule:nonzero;fill:rgb(94.901961%,94.901961%,94.901961%);fill-opacity:1;" d="M 164.203125 42.902344 C 164.203125 43.039062 164.09375 43.148438 163.957031 43.148438 C 163.820312 43.148438 163.707031 43.039062 163.707031 42.902344 C 163.707031 42.765625 163.820312 42.652344 163.957031 42.652344 C 164.09375 42.652344 164.203125 42.765625 164.203125 42.902344 Z M 164.203125 42.902344 "/>
<path style=" stroke:none;fill-rule:nonzero;fill:rgb(94.901961%,94.901961%,94.901961%);fill-opacity:1;" d="M 95.992188 24.921875 C 95.992188 25.058594 95.882812 25.167969 95.746094 25.167969 C 95.609375 25.167969 95.5 25.058594 95.5 24.921875 C 95.5 24.785156 95.609375 24.671875 95.746094 24.671875 C 95.882812 24.671875 95.992188 24.785156 95.992188 24.921875 Z M 95.992188 24.921875 "/>
<path style=" stroke:none;fill-rule:nonzero;fill:rgb(94.901961%,94.901961%,94.901961%);fill-opacity:1;" d="M 163.335938 50.960938 C 163.335938 51.097656 163.226562 51.210938 163.089844 51.210938 C 162.953125 51.210938 162.839844 51.097656 162.839844 50.960938 C 162.839844 50.824219 162.953125 50.714844 163.089844 50.714844 C 163.226562 50.714844 163.335938 50.824219 163.335938 50.960938 Z M 163.335938 50.960938 "/>
<path style=" stroke:none;fill-rule:nonzero;fill:rgb(94.901961%,94.901961%,94.901961%);fill-opacity:1;" d="M 75.195312 75.882812 C 75.195312 76.019531 75.085938 76.132812 74.949219 76.132812 C 74.8125 76.132812 74.703125 76.019531 74.703125 75.882812 C 74.703125 75.746094 74.8125 75.636719 74.949219 75.636719 C 75.085938 75.636719 75.195312 75.746094 75.195312 75.882812 Z M 75.195312 75.882812 "/>
<path style=" stroke:none;fill-rule:nonzero;fill:rgb(94.901961%,94.901961%,94.901961%);fill-opacity:1;" d="M 89.929688 86.050781 C 89.929688 86.1875 89.816406 86.300781 89.679688 86.300781 C 89.542969 86.300781 89.433594 86.1875 89.433594 86.050781 C 89.433594 85.914062 89.542969 85.804688 89.679688 85.804688 C 89.816406 85.804688 89.929688 85.914062 89.929688 86.050781 Z M 89.929688 86.050781 "/>
<path style=" stroke:none;fill-rule:nonzero;fill:rgb(94.901961%,94.901961%,94.901961%);fill-opacity:1;" d="M 111.097656 6.726562 L 110.753906 6.726562 L 110.753906 6.382812 L 110.570312 6.382812 L 110.570312 6.726562 L 110.230469 6.726562 L 110.230469 6.910156 L 110.570312 6.910156 L 110.570312 7.25 L 110.753906 7.25 L 110.753906 6.910156 L 111.097656 6.910156 Z M 147.988281 91.042969 L 147.644531 91.042969 L 147.644531 90.699219 L 147.460938 90.699219 L 147.460938 91.042969 L 147.121094 91.042969 L 147.121094 91.226562 L 147.460938 91.226562 L 147.460938 91.566406 L 147.644531 91.566406 L 147.644531 91.226562 L 147.988281 91.226562 Z M 170.886719 85.957031 L 170.546875 85.957031 L 170.546875 85.617188 L 170.363281 85.617188 L 170.363281 85.957031 L 170.023438 85.957031 L 170.023438 86.140625 L 170.363281 86.140625 L 170.363281 86.484375 L 170.546875 86.484375 L 170.546875 86.140625 L 170.886719 86.140625 Z M 170.886719 85.957031 "/>
<path style=" stroke:none;fill-rule:nonzero;fill:rgb(24.705882%,23.921569%,33.72549%);fill-opacity:1;" d="M 124.960938 30.378906 C 124.960938 31.886719 123.742188 33.105469 122.238281 33.105469 C 120.734375 33.105469 119.515625 31.886719 119.515625 30.378906 C 119.515625 28.871094 120.734375 27.652344 122.238281 27.652344 C 123.742188 27.652344 124.960938 28.871094 124.960938 30.378906 Z M 124.960938 30.378906 "/>
<path style=" stroke:none;fill-rule:nonzero;fill:rgb(24.705882%,23.921569%,33.72549%);fill-opacity:1;" d="M 104.039062 50.339844 C 104.039062 51.847656 102.820312 53.070312 101.316406 53.070312 C 99.8125 53.070312 98.59375 51.847656 98.59375 50.339844 C 98.59375 48.835938 99.8125 47.613281 101.316406 47.613281 C 102.820312 47.613281 104.039062 48.835938 104.039062 50.339844 Z M 104.039062 50.339844 "/>
<path style=" stroke:none;fill-rule:nonzero;fill:rgb(24.705882%,23.921569%,33.72549%);fill-opacity:1;" d="M 134.121094 77.746094 C 134.121094 79.25 132.902344 80.472656 131.398438 80.472656 C 129.894531 80.472656 128.675781 79.25 128.675781 77.746094 C 128.675781 76.238281 129.894531 75.015625 131.398438 75.015625 C 132.902344 75.015625 134.121094 76.238281 134.121094 77.746094 Z M 134.121094 77.746094 "/>
<path style=" stroke:none;fill-rule:nonzero;fill:rgb(24.705882%,23.921569%,33.72549%);fill-opacity:1;" d="M 124.960938 54.558594 C 124.960938 56.0625 123.742188 57.285156 122.238281 57.285156 C 120.734375 57.285156 119.515625 56.0625 119.515625 54.558594 C 119.515625 53.050781 120.734375 51.828125 122.238281 51.828125 C 123.742188 51.828125 124.960938 53.050781 124.960938 54.558594 Z M 124.960938 54.558594 "/>
<path style=" stroke:none;fill-rule:nonzero;fill:rgb(24.705882%,23.921569%,33.72549%);fill-opacity:1;" d="M 105.402344 69.5625 C 105.402344 71.066406 104.183594 72.289062 102.679688 72.289062 C 101.175781 72.289062 99.957031 71.066406 99.957031 69.5625 C 99.957031 68.054688 101.175781 66.832031 102.679688 66.832031 C 104.183594 66.832031 105.402344 68.054688 105.402344 69.5625 Z M 105.402344 69.5625 "/>
<path style=" stroke:none;fill-rule:nonzero;fill:rgb(24.705882%,23.921569%,33.72549%);fill-opacity:1;" d="M 139.570312 39.925781 C 139.570312 41.433594 138.347656 42.652344 136.84375 42.652344 C 135.339844 42.652344 134.121094 41.433594 134.121094 39.925781 C 134.121094 38.417969 135.339844 37.199219 136.84375 37.199219 C 138.347656 37.199219 139.570312 38.417969 139.570312 39.925781 Z M 139.570312 39.925781 "/>
<path style=" stroke:none;fill-rule:nonzero;fill:rgb(24.705882%,23.921569%,33.72549%);fill-opacity:1;" d="M 148.605469 58.402344 C 148.605469 59.90625 147.386719 61.128906 145.882812 61.128906 C 144.378906 61.128906 143.160156 59.90625 143.160156 58.402344 C 143.160156 56.894531 144.378906 55.671875 145.882812 55.671875 C 147.386719 55.671875 148.605469 56.894531 148.605469 58.402344 Z M 148.605469 58.402344 "/>
<path style=" stroke:none;fill-rule:nonzero;fill:rgb(100%,100%,100%);fill-opacity:1;" d="M 125.828125 42.652344 C 125.828125 44.640625 124.21875 46.25 122.238281 46.25 C 120.253906 46.25 118.648438 44.640625 118.648438 42.652344 C 118.648438 40.667969 120.253906 39.058594 122.238281 39.058594 C 124.21875 39.058594 125.828125 40.667969 125.828125 42.652344 Z M 125.828125 42.652344 "/>
<path style=" stroke:none;fill-rule:nonzero;fill:rgb(100%,39.607843%,51.764706%);fill-opacity:1;" d="M 122.238281 37.445312 C 111.914062 36.042969 104.679688 26.523438 106.082031 16.179688 C 107.484375 5.839844 116.988281 -1.402344 127.3125 0 C 127.3125 2.808594 132.390625 12.027344 132.390625 12.027344 C 132.390625 12.027344 137.464844 2.808594 137.464844 0 C 135.894531 0.90625 133.960938 0.90625 132.390625 0 Z M 122.238281 45.011719 C 122.238281 43.707031 123.289062 42.652344 124.589844 42.652344 C 125.890625 42.652344 126.941406 43.707031 126.941406 45.011719 C 126.941406 46.3125 125.890625 47.367188 124.589844 47.367188 Z M 122.238281 45.011719 "/>
<path style=" stroke:none;fill-rule:nonzero;fill:rgb(100%,100%,100%);fill-opacity:1;" d="M 106.269531 58.027344 C 106.269531 60.015625 104.660156 61.625 102.679688 61.625 C 100.695312 61.625 99.089844 60.015625 99.089844 58.027344 C 99.089844 56.042969 100.695312 54.433594 102.679688 54.433594 C 104.660156 54.433594 106.269531 56.042969 106.269531 58.027344 Z M 106.269531 58.027344 "/>
<path style=" stroke:none;fill-rule:nonzero;fill:rgb(100%,39.607843%,51.764706%);fill-opacity:1;" d="M 102.679688 52.820312 C 88.117188 51.417969 77.445312 38.457031 78.847656 23.867188 C 80.25 9.28125 93.191406 -1.402344 107.753906 0 C 107.753906 2.808594 112.828125 12.027344 112.828125 12.027344 C 112.828125 12.027344 117.90625 2.808594 117.90625 0 C 116.335938 0.90625 114.398438 0.90625 112.828125 0 Z M 102.679688 60.386719 C 102.679688 59.082031 103.730469 58.027344 105.03125 58.027344 C 106.328125 58.027344 107.382812 59.082031 107.382812 60.386719 C 107.382812 61.6875 106.328125 62.742188 105.03125 62.742188 Z M 102.679688 60.386719 "/>
<path style=" stroke:none;fill-rule:nonzero;fill:rgb(100%,100%,100%);fill-opacity:1;" d="M 149.472656 46.871094 C 149.472656 48.855469 147.863281 50.464844 145.882812 50.464844 C 143.898438 50.464844 142.292969 48.855469 142.292969 46.871094 C 142.292969 44.882812 143.898438 43.273438 145.882812 43.273438 C 147.863281 43.273438 149.472656 44.882812 149.472656 46.871094 Z M 149.472656 46.871094 "/>
<path style=" stroke:none;fill-rule:nonzero;fill:rgb(100%,39.607843%,51.764706%);fill-opacity:1;" d="M 145.882812 41.660156 C 134.394531 40.257812 126.222656 29.792969 127.621094 18.289062 C 129.023438 6.785156 139.472656 -1.402344 150.957031 0 C 150.957031 2.808594 156.03125 12.027344 156.03125 12.027344 C 156.03125 12.027344 161.109375 2.808594 161.109375 0 C 159.539062 0.90625 157.601562 0.90625 156.03125 0 Z M 145.882812 49.226562 C 145.882812 47.925781 146.933594 46.871094 148.234375 46.871094 C 149.53125 46.871094 150.585938 47.925781 150.585938 49.226562 C 150.585938 50.527344 149.53125 51.582031 148.234375 51.582031 Z M 145.882812 49.226562 "/>
<path style=" stroke:none;fill-rule:nonzero;fill:rgb(100%,100%,100%);fill-opacity:1;" d="M 125.828125 18.476562 C 125.828125 20.460938 124.21875 22.070312 122.238281 22.070312 C 120.253906 22.070312 118.648438 20.460938 118.648438 18.476562 C 118.648438 16.488281 120.253906 14.878906 122.238281 14.878906 C 124.21875 14.878906 125.828125 16.488281 125.828125 18.476562 Z M 125.828125 18.476562 "/>
<path style=" stroke:none;fill-rule:nonzero;fill:rgb(100%,39.607843%,51.764706%);fill-opacity:1;" d="M 122.238281 13.265625 C 118.582031 11.863281 116.75 7.753906 118.152344 4.09375 C 119.554688 0.429688 123.65625 -1.402344 127.3125 0 C 127.3125 2.808594 132.390625 12.027344 132.390625 12.027344 C 132.390625 12.027344 137.464844 2.808594 137.464844 0 C 135.894531 0.90625 133.960938 0.90625 132.390625 0 Z M 122.238281 20.832031 C 122.238281 19.53125 123.289062 18.476562 124.589844 18.476562 C 125.890625 18.476562 126.941406 19.53125 126.941406 20.832031 C 126.941406 22.132812 125.890625 23.1875 124.589844 23.1875 Z M 122.238281 20.832031 "/>
<path style=" stroke:none;fill-rule:nonzero;fill:rgb(100%,100%,100%);fill-opacity:1;" d="M 134.988281 66.210938 C 134.988281 68.199219 133.382812 69.808594 131.398438 69.808594 C 129.414062 69.808594 127.808594 68.199219 127.808594 66.210938 C 127.808594 64.226562 129.414062 62.617188 131.398438 62.617188 C 133.382812 62.617188 134.988281 64.226562 134.988281 66.210938 Z M 134.988281 66.210938 "/>
<path style=" stroke:none;fill-rule:nonzero;fill:rgb(100%,39.607843%,51.764706%);fill-opacity:1;" d="M 131.398438 61.003906 C 114.578125 59.601562 102.082031 44.808594 103.484375 27.960938 C 104.882812 11.113281 119.65625 -1.402344 136.472656 0 C 136.472656 2.808594 141.550781 12.027344 141.550781 12.027344 C 141.550781 12.027344 146.625 2.808594 146.625 0 C 145.054688 0.90625 143.121094 0.90625 141.550781 0 Z M 131.398438 68.570312 C 131.398438 67.265625 132.453125 66.210938 133.75 66.210938 C 135.050781 66.210938 136.101562 67.265625 136.101562 68.570312 C 136.101562 69.871094 135.050781 70.925781 133.75 70.925781 Z M 131.398438 68.570312 "/>
<path style=" stroke:none;fill-rule:nonzero;fill:rgb(100%,100%,100%);fill-opacity:1;" d="M 104.90625 38.5625 C 104.90625 40.546875 103.300781 42.15625 101.316406 42.15625 C 99.335938 42.15625 97.726562 40.546875 97.726562 38.5625 C 97.726562 36.574219 99.335938 34.964844 101.316406 34.964844 C 103.300781 34.964844 104.90625 36.574219 104.90625 38.5625 Z M 104.90625 38.5625 "/>
<path style=" stroke:none;fill-rule:nonzero;fill:rgb(100%,39.607843%,51.764706%);fill-opacity:1;" d="M 101.316406 33.355469 C 92.121094 31.949219 85.804688 23.347656 87.203125 14.136719 C 88.605469 4.925781 97.195312 -1.402344 106.390625 0 C 106.390625 2.808594 111.46875 12.027344 111.46875 12.027344 C 111.46875 12.027344 116.542969 2.808594 116.542969 0 C 114.972656 0.90625 113.039062 0.90625 111.46875 0 Z M 101.316406 40.917969 C 101.316406 39.617188 102.371094 38.5625 103.667969 38.5625 C 104.96875 38.5625 106.019531 39.617188 106.019531 40.917969 C 106.019531 42.21875 104.96875 43.273438 103.667969 43.273438 Z M 101.316406 40.917969 "/>
<path style=" stroke:none;fill-rule:nonzero;fill:rgb(100%,100%,100%);fill-opacity:1;" d="M 140.433594 28.519531 C 140.433594 30.503906 138.828125 32.113281 136.84375 32.113281 C 134.863281 32.113281 133.253906 30.503906 133.253906 28.519531 C 133.253906 26.53125 134.863281 24.921875 136.84375 24.921875 C 138.828125 24.921875 140.433594 26.53125 140.433594 28.519531 Z M 140.433594 28.519531 "/>
<path style=" stroke:none;fill-rule:nonzero;fill:rgb(100%,39.607843%,51.764706%);fill-opacity:1;" d="M 136.84375 23.3125 C 130.417969 21.90625 126.34375 15.550781 127.746094 9.113281 C 129.148438 2.675781 135.492188 -1.402344 141.921875 0 C 141.921875 2.808594 146.996094 12.027344 146.996094 12.027344 C 146.996094 12.027344 152.070312 2.808594 152.070312 0 C 150.5 0.90625 148.566406 0.90625 146.996094 0 Z M 136.84375 30.875 C 136.84375 29.574219 137.898438 28.519531 139.195312 28.519531 C 140.496094 28.519531 141.550781 29.574219 141.550781 30.875 C 141.550781 32.175781 140.496094 33.230469 139.195312 33.230469 Z M 136.84375 30.875 "/>
<path style=" stroke:none;fill-rule:nonzero;fill:rgb(24.705882%,23.921569%,33.72549%);fill-opacity:1;" d="M 68.253906 124.742188 C 68.253906 126.503906 52.976562 127.933594 34.128906 127.933594 C 15.277344 127.933594 0 126.503906 0 124.742188 C 0 122.976562 14.046875 119.023438 32.894531 119.023438 C 51.742188 119.023438 68.253906 122.976562 68.253906 124.742188 Z M 68.253906 124.742188 "/>
<path style=" stroke:none;fill-rule:nonzero;fill:rgb(18.431373%,18.039216%,25.490196%);fill-opacity:1;" d="M 22.597656 21.164062 L 35.992188 21.164062 L 35.992188 32.269531 L 22.597656 32.269531 Z M 22.597656 21.164062 "/>
<path style=" stroke:none;fill-rule:nonzero;fill:rgb(62.745098%,38.039216%,41.568627%);fill-opacity:1;" d="M 45.597656 114.078125 L 46.753906 118.519531 L 43.671875 119 L 42.226562 114.367188 Z M 23.726562 113.402344 L 23.726562 118.132812 L 20.453125 118.132812 L 20.933594 113.402344 Z M 23.726562 113.402344 "/>
<path style=" stroke:none;fill-rule:nonzero;fill:rgb(18.431373%,18.039216%,25.490196%);fill-opacity:1;" d="M 43.09375 118.132812 C 43.09375 118.132812 45.40625 117.070312 46.753906 118.132812 C 48.105469 119.195312 48.777344 121.605469 48.777344 121.605469 C 48.777344 121.605469 52.246094 126.046875 48.199219 125.851562 C 44.152344 125.660156 43.960938 125.175781 43.960938 124.5 C 43.960938 123.828125 44.152344 123.054688 43.480469 122.765625 C 42.804688 122.476562 42.515625 121.125 42.710938 120.738281 C 42.902344 120.351562 43.09375 118.132812 43.09375 118.132812 Z M 24.304688 117.359375 C 24.304688 117.359375 21.125 115.324219 20.453125 116.921875 C 19.777344 118.519531 18.8125 120.542969 18.8125 120.542969 C 18.8125 120.542969 16.117188 124.792969 19.488281 124.886719 C 22.859375 124.984375 23.4375 124.5 23.726562 123.632812 C 24.015625 122.765625 23.726562 122.089844 24.304688 122.089844 C 24.882812 122.089844 25.171875 120.835938 24.882812 120.253906 C 24.59375 119.675781 24.304688 117.359375 24.304688 117.359375 Z M 24.304688 117.359375 "/>
<path style=" stroke:none;fill-rule:nonzero;fill:rgb(62.745098%,38.039216%,41.568627%);fill-opacity:1;" d="M 33.460938 27.703125 C 33.460938 27.703125 32.6875 32.046875 34.710938 32.335938 C 36.734375 32.625 38.757812 33.496094 38.855469 34.074219 C 38.953125 34.652344 30.953125 40.828125 30.953125 40.828125 L 26.039062 39.285156 C 26.039062 39.285156 21.125 38.03125 21.320312 37.066406 C 21.511719 36.101562 21.898438 34.75 21.898438 34.75 C 21.898438 34.75 27.484375 33.589844 27.582031 31.855469 C 27.679688 30.117188 28.351562 27.316406 28.351562 27.316406 Z M 33.460938 27.703125 "/>
<use xlink:href="#surface8" mask="url(#mask1)"/>
<path style=" stroke:none;fill-rule:nonzero;fill:rgb(18.431373%,18.039216%,25.490196%);fill-opacity:1;" d="M 20.742188 54.917969 C 20.742188 54.917969 24.230469 58.257812 31.15625 57.941406 C 38.085938 57.621094 37.507812 60.035156 37.507812 60.035156 L 37.21875 63.894531 C 37.21875 63.894531 40.878906 80.011719 40.398438 88.503906 C 40.398438 88.503906 40.589844 92.558594 41.9375 94.777344 C 43.289062 96.996094 46.949219 113.402344 46.371094 114.65625 C 45.792969 115.914062 41.554688 115.429688 41.554688 115.429688 C 41.554688 115.429688 37.601562 100.472656 35.675781 97.09375 C 33.75 93.714844 33.554688 91.785156 33.554688 91.785156 L 27.003906 72.675781 L 26.136719 80.976562 C 26.136719 80.976562 26.234375 87.539062 26.234375 88.117188 C 26.234375 88.695312 26.136719 93.328125 25.75 94.292969 C 25.367188 95.261719 23.921875 110.703125 24.789062 113.308594 C 25.65625 115.914062 20.257812 114.464844 20.257812 114.464844 C 20.257812 114.464844 18.621094 97.671875 19.101562 94.390625 C 19.585938 91.109375 18.332031 85.222656 18.332031 85.222656 C 18.332031 85.222656 14.671875 67.273438 16.695312 64.378906 C 16.695312 64.378906 18.042969 54.535156 18.71875 54.628906 Z M 20.742188 54.917969 "/>
<path style=" stroke:none;fill-rule:nonzero;fill:rgb(62.745098%,38.039216%,41.568627%);fill-opacity:1;" d="M 36.011719 24.472656 C 36.011719 27.402344 33.640625 29.777344 30.714844 29.777344 C 27.785156 29.777344 25.414062 27.402344 25.414062 24.472656 C 25.414062 21.539062 27.785156 19.164062 30.714844 19.164062 C 33.640625 19.164062 36.011719 21.539062 36.011719 24.472656 Z M 36.011719 24.472656 "/>
<path style=" stroke:none;fill-rule:nonzero;fill:rgb(21.960784%,82.745098%,62.352941%);fill-opacity:1;" d="M 17.175781 58.007812 C 17.273438 58.304688 18.421875 57.695312 19.527344 57.027344 C 20.589844 56.386719 21.609375 55.691406 21.609375 55.691406 C 22.765625 59.359375 30.085938 57.910156 30.085938 57.910156 C 30.085938 57.910156 30.105469 57.9375 30.140625 57.984375 C 30.378906 58.3125 31.425781 59.683594 32.6875 60.613281 C 34.132812 61.675781 37.507812 59.164062 37.507812 59.164062 C 37.507812 59.164062 42.75 46.585938 43.421875 39.925781 C 43.566406 38.457031 43.496094 37.277344 43.09375 36.582031 C 40.878906 32.722656 37.761719 33.210938 37.761719 33.210938 C 37.242188 34.566406 33.074219 36.582031 33.074219 36.582031 L 28.929688 37.355469 C 24.789062 38.128906 23.535156 33.785156 23.535156 33.785156 C 22.378906 33.589844 20.257812 35.714844 20.257812 35.714844 C 18.234375 36.292969 17.175781 43.050781 17.175781 43.050781 C 17.175781 43.050781 17.378906 43.300781 17.691406 43.699219 C -17.34375 78.933594 -73.039062 82.652344 -112.433594 52.386719 C -151.828125 22.125 -162.675781 -32.722656 -137.78125 -75.746094 C -112.882812 -118.769531 -59.976562 -136.605469 -14.179688 -117.414062 C 31.621094 -98.21875 56.085938 -47.964844 42.980469 0 C 43.058594 0.105469 43.140625 0.210938 43.226562 0.324219 C 44.296875 1.71875 45.644531 3.550781 45.984375 4.339844 C 46.5625 5.691406 45.40625 7.71875 44.054688 7.621094 C 42.707031 7.523438 41.648438 12.929688 41.839844 13.507812 Z M 17.175781 58.007812 "/>
<path style=" stroke:none;fill-rule:nonzero;fill:rgb(62.745098%,38.039216%,41.568627%);fill-opacity:1;" d="M 30.761719 63.21875 C 30.761719 63.21875 26.234375 68.914062 24.210938 66.886719 C 22.1875 64.859375 30.085938 60.128906 30.085938 60.128906 Z M 19.296875 61.480469 C 19.296875 61.480469 23.246094 67.464844 21.03125 67.660156 C 18.8125 67.851562 16.117188 63.703125 16.117188 63.703125 Z M 19.296875 61.480469 "/>
<path style=" stroke:none;fill-rule:nonzero;fill:rgb(18.431373%,18.039216%,25.490196%);fill-opacity:1;" d="M 18.746094 32.851562 C 19.253906 31.730469 19.9375 30.675781 20.261719 29.484375 C 20.652344 28.0625 20.5 26.550781 20.457031 25.074219 C 20.414062 23.769531 20.460938 22.445312 20.785156 21.179688 C 21.109375 19.917969 21.734375 18.703125 22.707031 17.832031 C 25.1875 15.613281 29.730469 15.453125 32.761719 16.375 C 33.957031 16.742188 35.230469 17.433594 35.527344 18.648438 C 35.570312 18.832031 35.589844 19.023438 35.640625 19.203125 C 35.886719 20.109375 36.8125 20.679688 37.144531 21.558594 C 37.578125 22.691406 36.914062 23.925781 36.824219 25.136719 C 36.722656 26.550781 37.417969 27.886719 38.101562 29.125 C 38.507812 29.863281 38.929688 30.648438 38.890625 31.488281 C 30.207031 31.128906 23.460938 23.789062 23.820312 15.09375 C 24.179688 6.398438 31.507812 -0.359375 40.191406 0 C 39.371094 1.464844 37.699219 2.347656 36.023438 2.394531 C 35.480469 2.40625 34.910156 2.332031 34.460938 2.023438 C 33.722656 1.515625 33.503906 0.488281 33.660156 -0.398438 C 33.8125 -1.285156 34.261719 -2.085938 34.613281 -2.914062 C 32.0625 -8.070312 33.613281 -14.320312 38.28125 -17.675781 C 42.949219 -21.035156 49.355469 -20.511719 53.417969 -16.441406 C 57.480469 -12.371094 58.003906 -5.953125 54.652344 -1.28125 C 51.300781 3.394531 45.0625 4.949219 39.914062 2.394531 L 47.09375 2.394531 C 46.683594 3.445312 46.046875 4.386719 45.417969 5.320312 C 45.117188 5.765625 44.800781 6.226562 44.347656 6.519531 C 43.304688 7.832031 41.523438 8.304688 39.96875 7.679688 C 38.410156 7.050781 37.453125 5.472656 37.609375 3.800781 C 37.765625 2.128906 39.003906 0.757812 40.648438 0.433594 C 42.296875 0.109375 43.957031 0.90625 44.738281 2.394531 C 43.398438 2.824219 41.992188 3.171875 40.597656 2.976562 C 39.207031 2.785156 37.828125 1.941406 37.355469 0.617188 C 36.9375 -0.542969 37.273438 -1.839844 37.78125 -2.964844 Z M 18.746094 32.851562 "/>
<path style=" stroke:none;fill-rule:nonzero;fill:rgb(18.431373%,18.039216%,25.490196%);fill-opacity:1;" d="M 36.109375 21.191406 C 36.109375 19.378906 33.519531 17.910156 30.328125 17.910156 C 27.136719 17.910156 24.546875 19.378906 24.546875 21.191406 C 24.546875 23.003906 27.136719 24.472656 30.328125 24.472656 C 33.519531 24.472656 36.109375 23.003906 36.109375 21.191406 Z M 36.109375 21.191406 "/>
<use xlink:href="#surface11" mask="url(#mask2)"/>
<path style=" stroke:none;fill-rule:nonzero;fill:rgb(21.960784%,82.745098%,62.352941%);fill-opacity:1;" d="M 41.648438 36.679688 L 43.09375 36.679688 C 43.09375 36.679688 46.660156 43.917969 46.273438 52.121094 C 45.890625 60.324219 41.9375 63.605469 37.410156 64.667969 C 32.882812 65.726562 30.859375 66.402344 30.28125 65.726562 C 29.703125 65.050781 29.414062 59.457031 29.414062 59.457031 C 29.414062 59.457031 32.398438 56.65625 33.265625 56.65625 C 34.132812 56.65625 34.328125 55.789062 35.289062 55.882812 C 36.253906 55.980469 38.277344 55.691406 38.179688 54.824219 C 38.085938 53.953125 37.121094 48.453125 38.179688 46.8125 C 39.238281 45.171875 41.648438 36.679688 41.648438 36.679688 Z M 41.648438 36.679688 "/>
<use xlink:href="#surface14" mask="url(#mask3)"/>
<path style=" stroke:none;fill-rule:nonzero;fill:rgb(21.960784%,82.745098%,62.352941%);fill-opacity:1;" d="M 19.101562 41.117188 L 17.175781 43.050781 C 17.175781 43.050781 15.828125 50.867188 15.828125 51.347656 C 15.828125 51.832031 13.515625 54.917969 14.09375 57.042969 C 14.671875 59.164062 15.054688 61.964844 14.574219 62.542969 C 14.09375 63.121094 13.417969 64.761719 14.574219 65.535156 C 15.730469 66.308594 17.175781 61.097656 20.644531 62.445312 C 20.644531 62.445312 18.523438 59.070312 18.621094 58.78125 C 18.71875 58.488281 19.199219 57.71875 18.910156 56.558594 C 18.621094 55.402344 20.644531 52.601562 20.644531 52.601562 L 21.992188 48.9375 L 21.703125 44.015625 Z M 19.101562 41.117188 "/>
</g>
</svg>
