<?xml version="1.0" encoding="UTF-8"?>
<svg xmlns="http://www.w3.org/2000/svg" xmlns:xlink="http://www.w3.org/1999/xlink" width="200px" height="200px" viewBox="0 0 200 200" version="1.1">
<g id="surface1">
<path style="fill-rule:nonzero;fill:rgb(62.745098%,62.745098%,62.745098%);fill-opacity:1;stroke-width:50;stroke-linecap:round;stroke-linejoin:round;stroke:rgb(25.098039%,25.098039%,25.098039%);stroke-opacity:1;stroke-miterlimit:4;" d="M 0.15 0.0107422 L 1732.157812 -1000.082031 L 1732.157812 999.907227 L 0.15 2000 Z M 0.15 0.0107422 " transform="matrix(0.0127877,0,0,0.0199005,133.248082,40.199005)"/>
<path style="fill-rule:nonzero;fill:rgb(75.294118%,75.294118%,75.294118%);fill-opacity:1;stroke-width:50;stroke-linecap:round;stroke-linejoin:round;stroke:rgb(25.098039%,25.098039%,25.098039%);stroke-opacity:1;stroke-miterlimit:4;" d="M 1732.157812 -1000.082031 L 0.15 -1999.978516 L -1732.163281 -1000.082031 L 0.15 0.0107422 Z M 1732.157812 -1000.082031 " transform="matrix(0.0127877,0,0,0.0199005,133.248082,40.199005)"/>
<path style="fill-rule:nonzero;fill:rgb(50.196078%,50.196078%,50.196078%);fill-opacity:1;stroke-width:50;stroke-linecap:round;stroke-linejoin:round;stroke:rgb(25.098039%,25.098039%,25.098039%);stroke-opacity:1;stroke-miterlimit:4;" d="M -1731.857812 -1000.082031 L -1731.857812 999.907227 L 0.15 2000 L 0.15 0.0107422 Z M -1731.857812 -1000.082031 " transform="matrix(0.0127877,0,0,0.0199005,133.248082,40.199005)"/>
<path style="fill-rule:nonzero;fill:rgb(62.745098%,62.745098%,62.745098%);fill-opacity:1;stroke-width:50;stroke-linecap:round;stroke-linejoin:round;stroke:rgb(25.098039%,25.098039%,25.098039%);stroke-opacity:1;stroke-miterlimit:4;" d="M 0.065625 -0.0214844 L 1732.073437 -999.917969 L 1732.073437 1000.071289 L 0.065625 1999.967773 Z M 0.065625 -0.0214844 " transform="matrix(0.0127877,0,0,0.0199005,177.546036,159.60199)"/>
<path style="fill-rule:nonzero;fill:rgb(75.294118%,75.294118%,75.294118%);fill-opacity:1;stroke-width:50;stroke-linecap:round;stroke-linejoin:round;stroke:rgb(25.098039%,25.098039%,25.098039%);stroke-opacity:1;stroke-miterlimit:4;" d="M 1732.073437 -999.917969 L 0.065625 -2000.010742 L -1731.942188 -999.917969 L 0.065625 -0.0214844 Z M 1732.073437 -999.917969 " transform="matrix(0.0127877,0,0,0.0199005,177.546036,159.60199)"/>
<path style="fill-rule:nonzero;fill:rgb(50.196078%,50.196078%,50.196078%);fill-opacity:1;stroke-width:50;stroke-linecap:round;stroke-linejoin:round;stroke:rgb(25.098039%,25.098039%,25.098039%);stroke-opacity:1;stroke-miterlimit:4;" d="M -1731.942188 -999.917969 L -1731.942188 1000.071289 L 0.065625 1999.967773 L 0.065625 -0.0214844 Z M -1731.942188 -999.917969 " transform="matrix(0.0127877,0,0,0.0199005,177.546036,159.60199)"/>
<path style="fill-rule:nonzero;fill:rgb(62.745098%,62.745098%,62.745098%);fill-opacity:1;stroke-width:50;stroke-linecap:round;stroke-linejoin:round;stroke:rgb(25.098039%,25.098039%,25.098039%);stroke-opacity:1;stroke-miterlimit:4;" d="M 0.107812 0.0927734 L 1732.115625 -1000 L 1732.115625 999.989258 L 0.107812 2000.082031 Z M 0.107812 0.0927734 " transform="matrix(0.0127877,0,0,0.0199005,155.397059,99.900498)"/>
<path style="fill-rule:nonzero;fill:rgb(75.294118%,75.294118%,75.294118%);fill-opacity:1;stroke-width:50;stroke-linecap:round;stroke-linejoin:round;stroke:rgb(25.098039%,25.098039%,25.098039%);stroke-opacity:1;stroke-miterlimit:4;" d="M 1732.115625 -1000 L 0.107812 -2000.092773 L -1731.9 -1000 L 0.107812 0.0927734 Z M 1732.115625 -1000 " transform="matrix(0.0127877,0,0,0.0199005,155.397059,99.900498)"/>
<path style="fill-rule:nonzero;fill:rgb(50.196078%,50.196078%,50.196078%);fill-opacity:1;stroke-width:50;stroke-linecap:round;stroke-linejoin:round;stroke:rgb(25.098039%,25.098039%,25.098039%);stroke-opacity:1;stroke-miterlimit:4;" d="M -1731.9 -1000 L -1731.9 999.989258 L 0.107812 2000.082031 L 0.107812 0.0927734 Z M -1731.9 -1000 " transform="matrix(0.0127877,0,0,0.0199005,155.397059,99.900498)"/>
<path style="fill-rule:nonzero;fill:rgb(62.745098%,62.745098%,62.745098%);fill-opacity:1;stroke-width:50;stroke-linecap:round;stroke-linejoin:round;stroke:rgb(25.098039%,25.098039%,25.098039%);stroke-opacity:1;stroke-miterlimit:4;" d="M -0.113281 0.0927734 L 1732.2 -1000 L 1732.2 999.989258 L -0.113281 2000.082031 Z M -0.113281 0.0927734 " transform="matrix(0.0127877,0,0,0.0199005,111.099105,99.900498)"/>
<path style="fill-rule:nonzero;fill:rgb(75.294118%,75.294118%,75.294118%);fill-opacity:1;stroke-width:50;stroke-linecap:round;stroke-linejoin:round;stroke:rgb(25.098039%,25.098039%,25.098039%);stroke-opacity:1;stroke-miterlimit:4;" d="M 1732.2 -1000 L -0.113281 -2000.092773 L -1732.121094 -1000 L -0.113281 0.0927734 Z M 1732.2 -1000 " transform="matrix(0.0127877,0,0,0.0199005,111.099105,99.900498)"/>
<path style="fill-rule:nonzero;fill:rgb(50.196078%,50.196078%,50.196078%);fill-opacity:1;stroke-width:50;stroke-linecap:round;stroke-linejoin:round;stroke:rgb(25.098039%,25.098039%,25.098039%);stroke-opacity:1;stroke-miterlimit:4;" d="M -1732.121094 -1000 L -1732.121094 999.989258 L 0.192188 2000.082031 L 0.192188 0.0927734 Z M -1732.121094 -1000 " transform="matrix(0.0127877,0,0,0.0199005,111.099105,99.900498)"/>
<path style="fill-rule:nonzero;fill:rgb(62.745098%,62.745098%,62.745098%);fill-opacity:1;stroke-width:50;stroke-linecap:round;stroke-linejoin:round;stroke:rgb(25.098039%,25.098039%,25.098039%);stroke-opacity:1;stroke-miterlimit:4;" d="M 0.15 -0.0214844 L 1732.157812 -999.917969 L 1732.157812 1000.071289 L 0.15 1999.967773 Z M 0.15 -0.0214844 " transform="matrix(0.0127877,0,0,0.0199005,133.248082,159.60199)"/>
<path style="fill-rule:nonzero;fill:rgb(75.294118%,75.294118%,75.294118%);fill-opacity:1;stroke-width:50;stroke-linecap:round;stroke-linejoin:round;stroke:rgb(25.098039%,25.098039%,25.098039%);stroke-opacity:1;stroke-miterlimit:4;" d="M 1732.157812 -999.917969 L 0.15 -2000.010742 L -1732.163281 -999.917969 L 0.15 -0.0214844 Z M 1732.157812 -999.917969 " transform="matrix(0.0127877,0,0,0.0199005,133.248082,159.60199)"/>
<path style="fill-rule:nonzero;fill:rgb(50.196078%,50.196078%,50.196078%);fill-opacity:1;stroke-width:50;stroke-linecap:round;stroke-linejoin:round;stroke:rgb(25.098039%,25.098039%,25.098039%);stroke-opacity:1;stroke-miterlimit:4;" d="M -1731.857812 -999.917969 L -1731.857812 1000.071289 L 0.15 1999.967773 L 0.15 -0.0214844 Z M -1731.857812 -999.917969 " transform="matrix(0.0127877,0,0,0.0199005,133.248082,159.60199)"/>
<path style="fill-rule:nonzero;fill:rgb(62.745098%,62.745098%,62.745098%);fill-opacity:1;stroke-width:50;stroke-linecap:round;stroke-linejoin:round;stroke:rgb(25.098039%,25.098039%,25.098039%);stroke-opacity:1;stroke-miterlimit:4;" d="M -0.0289063 0.0820312 L 1731.978906 -1000.010742 L 1731.978906 999.978516 L -0.0289063 2000.071289 Z M -0.0289063 0.0820312 " transform="matrix(0.0127877,0,0,0.0199005,66.801151,139.701493)"/>
<path style="fill-rule:nonzero;fill:rgb(75.294118%,75.294118%,75.294118%);fill-opacity:1;stroke-width:50;stroke-linecap:round;stroke-linejoin:round;stroke:rgb(25.098039%,25.098039%,25.098039%);stroke-opacity:1;stroke-miterlimit:4;" d="M 1731.978906 -1000.010742 L -0.0289063 -1999.907227 L -1732.036719 -1000.010742 L -0.0289063 0.0820312 Z M 1731.978906 -1000.010742 " transform="matrix(0.0127877,0,0,0.0199005,66.801151,139.701493)"/>
<path style="fill-rule:nonzero;fill:rgb(50.196078%,50.196078%,50.196078%);fill-opacity:1;stroke-width:50;stroke-linecap:round;stroke-linejoin:round;stroke:rgb(25.098039%,25.098039%,25.098039%);stroke-opacity:1;stroke-miterlimit:4;" d="M -1732.036719 -1000.010742 L -1732.036719 999.978516 L -0.0289063 2000.071289 L -0.0289063 0.0820312 Z M -1732.036719 -1000.010742 " transform="matrix(0.0127877,0,0,0.0199005,66.801151,139.701493)"/>
<path style="fill-rule:nonzero;fill:rgb(62.745098%,62.745098%,62.745098%);fill-opacity:1;stroke-width:50;stroke-linecap:round;stroke-linejoin:round;stroke:rgb(25.098039%,25.098039%,25.098039%);stroke-opacity:1;stroke-miterlimit:4;" d="M -0.0710937 -0.0214844 L 1731.936719 -999.917969 L 1731.936719 1000.071289 L -0.0710937 1999.967773 Z M -0.0710937 -0.0214844 " transform="matrix(0.0127877,0,0,0.0199005,88.950128,159.60199)"/>
<path style="fill-rule:nonzero;fill:rgb(75.294118%,75.294118%,75.294118%);fill-opacity:1;stroke-width:50;stroke-linecap:round;stroke-linejoin:round;stroke:rgb(25.098039%,25.098039%,25.098039%);stroke-opacity:1;stroke-miterlimit:4;" d="M 1731.936719 -999.917969 L -0.0710937 -2000.010742 L -1732.078906 -999.917969 L -0.0710937 -0.0214844 Z M 1731.936719 -999.917969 " transform="matrix(0.0127877,0,0,0.0199005,88.950128,159.60199)"/>
<path style="fill-rule:nonzero;fill:rgb(50.196078%,50.196078%,50.196078%);fill-opacity:1;stroke-width:50;stroke-linecap:round;stroke-linejoin:round;stroke:rgb(25.098039%,25.098039%,25.098039%);stroke-opacity:1;stroke-miterlimit:4;" d="M -1732.078906 -999.917969 L -1732.078906 1000.071289 L -0.0710937 1999.967773 L -0.0710937 -0.0214844 Z M -1732.078906 -999.917969 " transform="matrix(0.0127877,0,0,0.0199005,88.950128,159.60199)"/>
<path style="fill-rule:nonzero;fill:rgb(62.745098%,62.745098%,62.745098%);fill-opacity:1;stroke-width:50;stroke-linecap:round;stroke-linejoin:round;stroke:rgb(25.098039%,25.098039%,25.098039%);stroke-opacity:1;stroke-miterlimit:4;" d="M 0.110938 0.0820312 L 1732.11875 -1000.010742 L 1732.11875 999.978516 L 0.110938 2000.071289 Z M 0.110938 0.0820312 " transform="matrix(0.0127877,0,0,0.0199005,22.506394,139.701493)"/>
<path style="fill-rule:nonzero;fill:rgb(75.294118%,75.294118%,75.294118%);fill-opacity:1;stroke-width:50;stroke-linecap:round;stroke-linejoin:round;stroke:rgb(25.098039%,25.098039%,25.098039%);stroke-opacity:1;stroke-miterlimit:4;" d="M 1732.11875 -1000.010742 L 0.110938 -1999.907227 L -1732.202344 -1000.010742 L 0.110938 0.0820312 Z M 1732.11875 -1000.010742 " transform="matrix(0.0127877,0,0,0.0199005,22.506394,139.701493)"/>
<path style="fill-rule:nonzero;fill:rgb(50.196078%,50.196078%,50.196078%);fill-opacity:1;stroke-width:50;stroke-linecap:round;stroke-linejoin:round;stroke:rgb(25.098039%,25.098039%,25.098039%);stroke-opacity:1;stroke-miterlimit:4;" d="M -1731.896875 -1000.010742 L -1731.896875 999.978516 L 0.110938 2000.071289 L 0.110938 0.0820312 Z M -1731.896875 -1000.010742 " transform="matrix(0.0127877,0,0,0.0199005,22.506394,139.701493)"/>
<path style="fill-rule:nonzero;fill:rgb(62.745098%,62.745098%,62.745098%);fill-opacity:1;stroke-width:50;stroke-linecap:round;stroke-linejoin:round;stroke:rgb(25.098039%,25.098039%,25.098039%);stroke-opacity:1;stroke-miterlimit:4;" d="M 0.110938 0.0927734 L 1732.11875 -1000 L 1732.11875 999.989258 L 0.110938 2000.082031 Z M 0.110938 0.0927734 " transform="matrix(0.0127877,0,0,0.0199005,22.506394,99.900498)"/>
<path style="fill-rule:nonzero;fill:rgb(75.294118%,75.294118%,75.294118%);fill-opacity:1;stroke-width:50;stroke-linecap:round;stroke-linejoin:round;stroke:rgb(25.098039%,25.098039%,25.098039%);stroke-opacity:1;stroke-miterlimit:4;" d="M 1732.11875 -1000 L 0.110938 -2000.092773 L -1732.202344 -1000 L 0.110938 0.0927734 Z M 1732.11875 -1000 " transform="matrix(0.0127877,0,0,0.0199005,22.506394,99.900498)"/>
<path style="fill-rule:nonzero;fill:rgb(50.196078%,50.196078%,50.196078%);fill-opacity:1;stroke-width:50;stroke-linecap:round;stroke-linejoin:round;stroke:rgb(25.098039%,25.098039%,25.098039%);stroke-opacity:1;stroke-miterlimit:4;" d="M -1731.896875 -1000 L -1731.896875 999.989258 L 0.110938 2000.082031 L 0.110938 0.0927734 Z M -1731.896875 -1000 " transform="matrix(0.0127877,0,0,0.0199005,22.506394,99.900498)"/>
</g>
</svg>
