<?xml version="1.0" encoding="UTF-8"?>
<svg xmlns="http://www.w3.org/2000/svg" xmlns:xlink="http://www.w3.org/1999/xlink" width="200px" height="200px" viewBox="0 0 200 200" version="1.1">
<defs>
<filter id="alpha" filterUnits="objectBoundingBox" x="0%" y="0%" width="100%" height="100%">
  <feColorMatrix type="matrix" in="SourceGraphic" values="0 0 0 0 1 0 0 0 0 1 0 0 0 0 1 0 0 0 1 0"/>
</filter>
<mask id="mask0">
  <g filter="url(#alpha)">
<rect x="0" y="0" width="200" height="200" style="fill:rgb(0%,0%,0%);fill-opacity:0.2;stroke:none;"/>
  </g>
</mask>
<clipPath id="clip2">
  <path d="M 141.574219 104.101562 L 186.21875 104.101562 L 186.21875 148.566406 L 141.574219 148.566406 Z M 141.574219 104.101562 "/>
</clipPath>
<clipPath id="clip1">
  <rect x="0" y="0" width="200" height="200"/>
</clipPath>
<g id="surface5" clip-path="url(#clip1)">
<g clip-path="url(#clip2)" clip-rule="nonzero">
<path style=" stroke:none;fill-rule:nonzero;fill:rgb(36.862745%,0%,0%);fill-opacity:1;" d="M 151.878906 104.101562 C 146.191406 104.109375 141.582031 109.082031 141.574219 115.21875 L 141.574219 137.453125 C 141.582031 143.589844 146.191406 148.5625 151.878906 148.570312 L 186.21875 148.570312 L 186.21875 104.101562 Z M 151.878906 104.101562 "/>
</g>
</g>
<mask id="mask1">
  <g filter="url(#alpha)">
<rect x="0" y="0" width="200" height="200" style="fill:rgb(0%,0%,0%);fill-opacity:0.2;stroke:none;"/>
  </g>
</mask>
<clipPath id="clip4">
  <path d="M 7.648438 22.578125 L 31.6875 22.578125 L 31.6875 193.035156 L 7.648438 193.035156 Z M 7.648438 22.578125 "/>
</clipPath>
<clipPath id="clip3">
  <rect x="0" y="0" width="200" height="200"/>
</clipPath>
<g id="surface8" clip-path="url(#clip3)">
<g clip-path="url(#clip4)" clip-rule="nonzero">
<path style=" stroke:none;fill-rule:nonzero;fill:rgb(45.882353%,0%,0%);fill-opacity:1;" d="M 17.949219 178.210938 L 17.949219 36.875 C 11.894531 35.203125 7.65625 29.320312 7.644531 22.578125 L 7.644531 178.210938 C 7.644531 186.394531 13.796875 193.03125 21.382812 193.03125 L 31.683594 193.03125 C 24.101562 193.035156 17.949219 186.398438 17.949219 178.210938 "/>
</g>
</g>
<mask id="mask2">
  <g filter="url(#alpha)">
<rect x="0" y="0" width="200" height="200" style="fill:rgb(0%,0%,0%);fill-opacity:0.2;stroke:none;"/>
  </g>
</mask>
<clipPath id="clip6">
  <path d="M 7.648438 167.09375 L 186.21875 167.09375 L 186.21875 193.035156 L 7.648438 193.035156 Z M 7.648438 167.09375 "/>
</clipPath>
<clipPath id="clip5">
  <rect x="0" y="0" width="200" height="200"/>
</clipPath>
<g id="surface11" clip-path="url(#clip5)">
<g clip-path="url(#clip6)" clip-rule="nonzero">
<path style=" stroke:none;fill-rule:nonzero;fill:rgb(45.882353%,0%,0%);fill-opacity:1;" d="M 172.480469 181.917969 L 21.382812 181.917969 C 13.796875 181.917969 7.648438 175.28125 7.648438 167.09375 L 7.648438 178.210938 C 7.648438 186.398438 13.796875 193.035156 21.382812 193.035156 L 172.480469 193.035156 C 180.066406 193.035156 186.21875 186.398438 186.21875 178.210938 L 186.21875 167.09375 C 186.21875 175.28125 180.066406 181.917969 172.480469 181.917969 "/>
</g>
</g>
<mask id="mask3">
  <g filter="url(#alpha)">
<rect x="0" y="0" width="200" height="200" style="fill:rgb(0%,0%,0%);fill-opacity:0.501961;stroke:none;"/>
  </g>
</mask>
<clipPath id="clip8">
  <path d="M 7.648438 22.578125 L 186.21875 22.578125 L 186.21875 63.339844 L 7.648438 63.339844 Z M 7.648438 22.578125 "/>
</clipPath>
<clipPath id="clip7">
  <rect x="0" y="0" width="200" height="200"/>
</clipPath>
<g id="surface14" clip-path="url(#clip7)">
<g clip-path="url(#clip8)" clip-rule="nonzero">
<path style=" stroke:none;fill-rule:nonzero;fill:rgb(100%,100%,100%);fill-opacity:1;" d="M 172.480469 37.402344 L 21.382812 37.402344 C 13.796875 37.402344 7.648438 30.765625 7.648438 22.578125 L 7.648438 33.695312 C 7.648438 41.882812 13.796875 48.519531 21.382812 48.519531 L 172.480469 48.519531 C 180.066406 48.519531 186.21875 55.15625 186.21875 63.339844 L 186.21875 52.222656 C 186.21875 44.039062 180.066406 37.402344 172.480469 37.402344 "/>
</g>
</g>
<mask id="mask4">
  <g filter="url(#alpha)">
<rect x="0" y="0" width="200" height="200" style="fill:rgb(0%,0%,0%);fill-opacity:0.501961;stroke:none;"/>
  </g>
</mask>
<clipPath id="clip10">
  <path d="M 169 78 L 175.9375 78 L 175.9375 85.574219 L 169 85.574219 Z M 169 78 "/>
</clipPath>
<clipPath id="clip11">
  <path d="M 169 63 L 175.9375 63 L 175.9375 71 L 169 71 Z M 169 63 "/>
</clipPath>
<clipPath id="clip12">
  <path d="M 169 48.519531 L 175.9375 48.519531 L 175.9375 56 L 169 56 Z M 169 48.519531 "/>
</clipPath>
<clipPath id="clip13">
  <path d="M 31 48.519531 L 163 48.519531 L 163 56 L 31 56 Z M 31 48.519531 "/>
</clipPath>
<clipPath id="clip14">
  <path d="M 17.945312 48.519531 L 25 48.519531 L 25 56 L 17.945312 56 Z M 17.945312 48.519531 "/>
</clipPath>
<clipPath id="clip9">
  <rect x="0" y="0" width="200" height="200"/>
</clipPath>
<g id="surface17" clip-path="url(#clip9)">
<g clip-path="url(#clip10)" clip-rule="nonzero">
<path style=" stroke:none;fill-rule:nonzero;fill:rgb(36.078431%,36.078431%,62.745098%);fill-opacity:1;" d="M 172.480469 85.574219 C 172.03125 85.570312 171.589844 85.464844 171.175781 85.277344 C 170.757812 85.097656 170.375 84.832031 170.042969 84.5 C 168.710938 83.035156 168.710938 80.695312 170.042969 79.238281 C 170.375 78.902344 170.757812 78.636719 171.175781 78.460938 C 172.007812 78.070312 172.957031 78.070312 173.789062 78.460938 C 174.207031 78.636719 174.589844 78.90625 174.921875 79.238281 C 176.273438 80.679688 176.273438 83.023438 174.941406 84.476562 C 174.285156 85.183594 173.40625 85.578125 172.480469 85.574219 "/>
</g>
<g clip-path="url(#clip11)" clip-rule="nonzero">
<path style=" stroke:none;fill-rule:nonzero;fill:rgb(36.078431%,36.078431%,62.745098%);fill-opacity:1;" d="M 169.046875 67.046875 C 169.054688 65 170.585938 63.34375 172.480469 63.339844 C 174.375 63.34375 175.910156 65 175.917969 67.046875 C 175.910156 69.089844 174.375 70.742188 172.480469 70.75 C 170.585938 70.742188 169.054688 69.089844 169.046875 67.046875 "/>
</g>
<g clip-path="url(#clip12)" clip-rule="nonzero">
<path style=" stroke:none;fill-rule:nonzero;fill:rgb(36.078431%,36.078431%,62.745098%);fill-opacity:1;" d="M 172.480469 55.929688 C 172.03125 55.941406 171.582031 55.839844 171.175781 55.632812 C 170.757812 55.457031 170.375 55.1875 170.042969 54.855469 C 169.417969 54.148438 169.0625 53.207031 169.046875 52.222656 C 169.035156 51.738281 169.128906 51.253906 169.324219 50.816406 C 169.496094 50.367188 169.742188 49.953125 170.042969 49.59375 C 171.410156 48.195312 173.554688 48.195312 174.921875 49.59375 C 175.222656 49.953125 175.464844 50.367188 175.640625 50.816406 C 175.835938 51.253906 175.925781 51.738281 175.914062 52.222656 C 175.933594 54.25 174.425781 55.910156 172.546875 55.929688 Z M 172.480469 55.929688 "/>
</g>
<g clip-path="url(#clip13)" clip-rule="nonzero">
<path style=" stroke:none;fill-rule:nonzero;fill:rgb(36.078431%,36.078431%,62.745098%);fill-opacity:1;" d="M 155.3125 52.222656 C 155.316406 50.179688 156.851562 48.523438 158.746094 48.519531 C 160.640625 48.523438 162.171875 50.179688 162.179688 52.222656 C 162.171875 54.269531 160.640625 55.921875 158.746094 55.929688 C 156.851562 55.921875 155.316406 54.269531 155.3125 52.222656 M 141.574219 52.222656 C 141.582031 50.179688 143.113281 48.523438 145.007812 48.519531 C 146.902344 48.523438 148.4375 50.179688 148.445312 52.222656 C 148.4375 54.269531 146.902344 55.921875 145.007812 55.929688 C 143.113281 55.921875 141.582031 54.269531 141.574219 52.222656 M 127.839844 52.222656 C 127.84375 50.179688 129.378906 48.523438 131.273438 48.519531 C 133.167969 48.523438 134.699219 50.179688 134.707031 52.222656 C 134.699219 54.269531 133.167969 55.921875 131.273438 55.929688 C 129.378906 55.921875 127.84375 54.269531 127.839844 52.222656 M 114.101562 52.222656 C 114.109375 50.179688 115.640625 48.523438 117.535156 48.519531 C 119.429688 48.523438 120.964844 50.179688 120.972656 52.222656 C 120.964844 54.269531 119.429688 55.921875 117.535156 55.929688 C 115.640625 55.921875 114.109375 54.269531 114.101562 52.222656 M 100.367188 52.222656 C 100.371094 50.179688 101.90625 48.523438 103.800781 48.519531 C 105.695312 48.523438 107.230469 50.179688 107.234375 52.222656 C 107.230469 54.269531 105.695312 55.921875 103.800781 55.929688 C 101.90625 55.921875 100.371094 54.269531 100.367188 52.222656 M 86.628906 52.222656 C 86.636719 50.179688 88.167969 48.523438 90.066406 48.519531 C 91.957031 48.523438 93.492188 50.179688 93.5 52.222656 C 93.492188 54.269531 91.960938 55.921875 90.066406 55.929688 C 88.167969 55.921875 86.636719 54.269531 86.628906 52.222656 M 72.894531 52.222656 C 72.898438 50.179688 74.433594 48.523438 76.328125 48.519531 C 78.222656 48.523438 79.753906 50.179688 79.761719 52.222656 C 79.757812 54.269531 78.222656 55.921875 76.328125 55.929688 C 74.433594 55.921875 72.898438 54.269531 72.894531 52.222656 M 59.15625 52.222656 C 59.164062 50.179688 60.695312 48.523438 62.59375 48.519531 C 64.488281 48.523438 66.019531 50.179688 66.027344 52.222656 C 66.019531 54.269531 64.488281 55.921875 62.59375 55.929688 C 60.695312 55.921875 59.164062 54.269531 59.15625 52.222656 M 45.421875 52.222656 C 45.429688 50.179688 46.960938 48.523438 48.855469 48.519531 C 50.75 48.523438 52.28125 50.179688 52.289062 52.222656 C 52.285156 54.269531 50.75 55.921875 48.855469 55.929688 C 46.960938 55.921875 45.429688 54.269531 45.421875 52.222656 M 31.683594 52.222656 C 31.691406 50.179688 33.222656 48.523438 35.121094 48.519531 C 37.015625 48.523438 38.546875 50.179688 38.554688 52.222656 C 38.546875 54.269531 37.015625 55.921875 35.121094 55.929688 C 33.222656 55.921875 31.691406 54.269531 31.683594 52.222656 "/>
</g>
<g clip-path="url(#clip14)" clip-rule="nonzero">
<path style=" stroke:none;fill-rule:nonzero;fill:rgb(42.745098%,42.745098%,66.666667%);fill-opacity:1;" d="M 21.382812 55.929688 C 20.472656 55.914062 19.601562 55.53125 18.945312 54.855469 C 18.644531 54.492188 18.398438 54.082031 18.222656 53.632812 C 18.027344 53.191406 17.933594 52.710938 17.949219 52.222656 C 17.964844 51.242188 18.316406 50.300781 18.945312 49.59375 C 19.277344 49.257812 19.660156 48.992188 20.078125 48.816406 C 20.910156 48.445312 21.855469 48.445312 22.6875 48.816406 C 23.105469 49 23.484375 49.265625 23.820312 49.59375 C 24.449219 50.304688 24.804688 51.242188 24.816406 52.222656 C 24.808594 52.707031 24.71875 53.1875 24.542969 53.632812 C 24.367188 54.082031 24.125 54.496094 23.820312 54.855469 C 23.164062 55.53125 22.292969 55.914062 21.382812 55.929688 "/>
</g>
</g>
<mask id="mask5">
  <g filter="url(#alpha)">
<rect x="0" y="0" width="200" height="200" style="fill:rgb(0%,0%,0%);fill-opacity:0.501961;stroke:none;"/>
  </g>
</mask>
<clipPath id="clip16">
  <path d="M 169 144.890625 L 175.9375 144.890625 L 175.9375 153 L 169 153 Z M 169 144.890625 "/>
</clipPath>
<clipPath id="clip17">
  <path d="M 169 159 L 175.9375 159 L 175.9375 168 L 169 168 Z M 169 159 "/>
</clipPath>
<clipPath id="clip18">
  <path d="M 169 174 L 175.9375 174 L 175.9375 181.917969 L 169 181.917969 Z M 169 174 "/>
</clipPath>
<clipPath id="clip19">
  <path d="M 31 174 L 163 174 L 163 181.917969 L 31 181.917969 Z M 31 174 "/>
</clipPath>
<clipPath id="clip20">
  <path d="M 17.945312 174 L 25 174 L 25 181.917969 L 17.945312 181.917969 Z M 17.945312 174 "/>
</clipPath>
<clipPath id="clip15">
  <rect x="0" y="0" width="200" height="200"/>
</clipPath>
<g id="surface20" clip-path="url(#clip15)">
<g clip-path="url(#clip16)" clip-rule="nonzero">
<path style=" stroke:none;fill-rule:nonzero;fill:rgb(42.745098%,42.745098%,66.666667%);fill-opacity:1;" d="M 172.480469 152.273438 C 172.03125 152.269531 171.589844 152.164062 171.175781 151.976562 C 170.757812 151.796875 170.375 151.53125 170.042969 151.199219 C 168.710938 149.734375 168.710938 147.394531 170.042969 145.9375 C 171.410156 144.539062 173.554688 144.539062 174.921875 145.9375 C 176.273438 147.378906 176.273438 149.726562 174.941406 151.175781 C 174.285156 151.882812 173.40625 152.277344 172.480469 152.273438 "/>
</g>
<g clip-path="url(#clip17)" clip-rule="nonzero">
<path style=" stroke:none;fill-rule:nonzero;fill:rgb(42.745098%,42.745098%,66.666667%);fill-opacity:1;" d="M 169.046875 163.390625 C 169.054688 161.34375 170.585938 159.6875 172.480469 159.683594 C 174.375 159.6875 175.910156 161.34375 175.917969 163.390625 C 175.910156 165.433594 174.375 167.089844 172.480469 167.09375 C 170.585938 167.085938 169.054688 165.433594 169.046875 163.390625 "/>
</g>
<g clip-path="url(#clip18)" clip-rule="nonzero">
<path style=" stroke:none;fill-rule:nonzero;fill:rgb(42.745098%,42.745098%,66.666667%);fill-opacity:1;" d="M 172.480469 181.917969 C 172.03125 181.914062 171.589844 181.808594 171.175781 181.621094 C 170.757812 181.441406 170.375 181.175781 170.042969 180.84375 C 169.898438 180.664062 169.757812 180.476562 169.632812 180.289062 C 169.5 180.078125 169.398438 179.855469 169.324219 179.621094 C 169.222656 179.410156 169.15625 179.179688 169.113281 178.953125 C 169.078125 178.707031 169.054688 178.457031 169.046875 178.210938 C 169.0625 177.226562 169.417969 176.285156 170.042969 175.582031 C 170.375 175.246094 170.757812 174.980469 171.175781 174.804688 C 172.453125 174.222656 173.929688 174.53125 174.917969 175.582031 C 175.058594 175.765625 175.195312 175.953125 175.332031 176.132812 C 175.460938 176.34375 175.558594 176.570312 175.640625 176.804688 C 175.742188 177.011719 175.808594 177.234375 175.839844 177.46875 C 175.9375 177.957031 175.9375 178.464844 175.839844 178.953125 C 175.808594 179.183594 175.742188 179.410156 175.640625 179.621094 C 175.566406 179.855469 175.464844 180.078125 175.332031 180.289062 C 175.195312 180.472656 175.058594 180.660156 174.917969 180.84375 C 174.265625 181.519531 173.394531 181.902344 172.480469 181.917969 "/>
</g>
<g clip-path="url(#clip19)" clip-rule="nonzero">
<path style=" stroke:none;fill-rule:nonzero;fill:rgb(42.745098%,42.745098%,66.666667%);fill-opacity:1;" d="M 155.3125 178.210938 C 155.316406 176.167969 156.851562 174.511719 158.746094 174.507812 C 160.640625 174.511719 162.171875 176.167969 162.179688 178.210938 C 162.171875 180.257812 160.640625 181.910156 158.746094 181.917969 C 156.851562 181.910156 155.316406 180.253906 155.3125 178.210938 M 141.574219 178.210938 C 141.582031 176.167969 143.113281 174.511719 145.007812 174.507812 C 146.902344 174.511719 148.4375 176.167969 148.445312 178.210938 C 148.4375 180.257812 146.902344 181.910156 145.007812 181.917969 C 143.113281 181.910156 141.582031 180.253906 141.574219 178.210938 M 127.839844 178.210938 C 127.84375 176.167969 129.378906 174.511719 131.273438 174.507812 C 133.167969 174.511719 134.699219 176.167969 134.707031 178.210938 C 134.699219 180.257812 133.167969 181.910156 131.273438 181.917969 C 129.378906 181.910156 127.84375 180.253906 127.839844 178.210938 M 114.101562 178.210938 C 114.109375 176.167969 115.640625 174.511719 117.535156 174.507812 C 119.429688 174.511719 120.964844 176.167969 120.972656 178.210938 C 120.964844 180.257812 119.429688 181.910156 117.535156 181.917969 C 115.640625 181.910156 114.109375 180.253906 114.101562 178.210938 M 100.367188 178.210938 C 100.371094 176.167969 101.90625 174.511719 103.800781 174.507812 C 105.695312 174.511719 107.230469 176.167969 107.234375 178.210938 C 107.230469 180.257812 105.695312 181.910156 103.800781 181.917969 C 101.90625 181.910156 100.371094 180.253906 100.367188 178.210938 M 86.628906 178.210938 C 86.636719 176.167969 88.167969 174.511719 90.066406 174.507812 C 91.957031 174.511719 93.492188 176.167969 93.5 178.210938 C 93.492188 180.257812 91.960938 181.910156 90.066406 181.917969 C 88.167969 181.910156 86.636719 180.253906 86.628906 178.210938 M 72.894531 178.210938 C 72.898438 176.167969 74.433594 174.511719 76.328125 174.507812 C 78.222656 174.511719 79.753906 176.167969 79.761719 178.210938 C 79.757812 180.257812 78.222656 181.910156 76.328125 181.917969 C 74.433594 181.910156 72.898438 180.253906 72.894531 178.210938 M 59.15625 178.210938 C 59.164062 176.167969 60.695312 174.511719 62.59375 174.507812 C 64.488281 174.511719 66.019531 176.167969 66.027344 178.210938 C 66.019531 180.257812 64.488281 181.910156 62.59375 181.917969 C 60.695312 181.910156 59.164062 180.253906 59.15625 178.210938 M 45.421875 178.210938 C 45.429688 176.167969 46.960938 174.511719 48.855469 174.507812 C 50.75 174.511719 52.28125 176.167969 52.289062 178.210938 C 52.285156 180.257812 50.75 181.910156 48.855469 181.917969 C 46.960938 181.910156 45.429688 180.253906 45.421875 178.210938 M 31.683594 178.210938 C 31.691406 176.167969 33.222656 174.511719 35.121094 174.507812 C 37.015625 174.511719 38.546875 176.167969 38.554688 178.210938 C 38.546875 180.257812 37.015625 181.910156 35.121094 181.917969 C 33.222656 181.910156 31.691406 180.253906 31.683594 178.210938 "/>
</g>
<g clip-path="url(#clip20)" clip-rule="nonzero">
<path style=" stroke:none;fill-rule:nonzero;fill:rgb(42.745098%,42.745098%,66.666667%);fill-opacity:1;" d="M 21.382812 181.917969 C 20.472656 181.902344 19.601562 181.519531 18.945312 180.84375 C 18.308594 180.136719 17.957031 179.195312 17.949219 178.210938 C 17.933594 177.726562 18.027344 177.242188 18.222656 176.804688 C 18.398438 176.355469 18.644531 175.9375 18.945312 175.582031 C 20.320312 174.210938 22.445312 174.210938 23.820312 175.582031 C 24.125 175.9375 24.367188 176.355469 24.542969 176.804688 C 24.722656 177.25 24.808594 177.726562 24.816406 178.210938 C 24.808594 179.195312 24.457031 180.136719 23.820312 180.84375 C 23.164062 181.519531 22.292969 181.902344 21.382812 181.917969 "/>
</g>
</g>
<mask id="mask6">
  <g filter="url(#alpha)">
<rect x="0" y="0" width="200" height="200" style="fill:rgb(0%,0%,0%);fill-opacity:0.2;stroke:none;"/>
  </g>
</mask>
<clipPath id="clip22">
  <path d="M 7.648438 7.757812 L 31.6875 7.757812 L 31.6875 37.402344 L 7.648438 37.402344 Z M 7.648438 7.757812 "/>
</clipPath>
<clipPath id="clip21">
  <rect x="0" y="0" width="200" height="200"/>
</clipPath>
<g id="surface23" clip-path="url(#clip21)">
<g clip-path="url(#clip22)" clip-rule="nonzero">
<path style=" stroke:none;fill-rule:nonzero;fill:rgb(45.882353%,0%,0%);fill-opacity:1;" d="M 17.949219 22.578125 C 17.949219 14.394531 24.101562 7.757812 31.683594 7.757812 L 21.382812 7.757812 C 13.796875 7.757812 7.648438 14.394531 7.648438 22.578125 C 7.648438 30.765625 13.796875 37.402344 21.382812 37.402344 L 31.683594 37.402344 C 24.101562 37.402344 17.949219 30.765625 17.949219 22.578125 "/>
</g>
</g>
<mask id="mask7">
  <g filter="url(#alpha)">
<rect x="0" y="0" width="200" height="200" style="fill:rgb(0%,0%,0%);fill-opacity:0.2;stroke:none;"/>
  </g>
</mask>
<clipPath id="clip24">
  <path d="M 7.644531 17.019531 L 172.480469 17.019531 L 172.480469 37.402344 L 7.644531 37.402344 Z M 7.644531 17.019531 "/>
</clipPath>
<clipPath id="clip23">
  <rect x="0" y="0" width="200" height="200"/>
</clipPath>
<g id="surface26" clip-path="url(#clip23)">
<g clip-path="url(#clip24)" clip-rule="nonzero">
<path style=" stroke:none;fill-rule:nonzero;fill:rgb(31.764706%,1.568627%,1.568627%);fill-opacity:1;" d="M 8.664062 17.019531 C 5.800781 24.582031 9.160156 33.214844 16.167969 36.304688 C 17.820312 37.03125 19.59375 37.40625 21.382812 37.402344 L 172.480469 37.402344 L 172.480469 26.285156 L 21.382812 26.285156 C 15.789062 26.28125 10.757812 22.613281 8.664062 17.019531 "/>
</g>
</g>
<mask id="mask8">
  <g filter="url(#alpha)">
<rect x="0" y="0" width="200" height="200" style="fill:rgb(0%,0%,0%);fill-opacity:0.2;stroke:none;"/>
  </g>
</mask>
<clipPath id="clip26">
  <path d="M 175.914062 96.691406 L 193.085938 96.691406 L 193.085938 133.746094 L 175.914062 133.746094 Z M 175.914062 96.691406 "/>
</clipPath>
<clipPath id="clip25">
  <rect x="0" y="0" width="200" height="200"/>
</clipPath>
<g id="surface29" clip-path="url(#clip25)">
<g clip-path="url(#clip26)" clip-rule="nonzero">
<path style=" stroke:none;fill-rule:nonzero;fill:rgb(45.882353%,0%,0%);fill-opacity:1;" d="M 186.21875 96.691406 L 175.914062 96.691406 C 179.707031 96.691406 182.785156 100.011719 182.785156 104.101562 L 182.785156 126.335938 C 182.785156 130.421875 179.707031 133.746094 175.914062 133.746094 L 186.21875 133.746094 C 190.007812 133.746094 193.085938 130.421875 193.085938 126.335938 L 193.085938 104.101562 C 193.085938 100.011719 190.007812 96.691406 186.21875 96.691406 "/>
</g>
</g>
<mask id="mask9">
  <g filter="url(#alpha)">
<rect x="0" y="0" width="200" height="200" style="fill:rgb(0%,0%,0%);fill-opacity:0.2;stroke:none;"/>
  </g>
</mask>
<clipPath id="clip28">
  <path d="M 145.007812 115.21875 L 193.085938 115.21875 L 193.085938 133.746094 L 145.007812 133.746094 Z M 145.007812 115.21875 "/>
</clipPath>
<clipPath id="clip27">
  <rect x="0" y="0" width="200" height="200"/>
</clipPath>
<g id="surface32" clip-path="url(#clip27)">
<g clip-path="url(#clip28)" clip-rule="nonzero">
<path style=" stroke:none;fill-rule:nonzero;fill:rgb(35.686275%,0.392157%,0.392157%);fill-opacity:1;" d="M 186.21875 122.628906 L 151.878906 122.628906 C 148.089844 122.628906 145.007812 119.308594 145.007812 115.21875 L 145.007812 126.335938 C 145.007812 130.421875 148.089844 133.746094 151.878906 133.746094 L 186.21875 133.746094 C 190.007812 133.746094 193.085938 130.421875 193.085938 126.335938 L 193.085938 115.21875 C 193.085938 119.308594 190.007812 122.628906 186.21875 122.628906 "/>
</g>
</g>
<mask id="mask10">
  <g filter="url(#alpha)">
<rect x="0" y="0" width="200" height="200" style="fill:rgb(0%,0%,0%);fill-opacity:0.501961;stroke:none;"/>
  </g>
</mask>
<clipPath id="clip30">
  <path d="M 145.007812 96.691406 L 193.085938 96.691406 L 193.085938 115.21875 L 145.007812 115.21875 Z M 145.007812 96.691406 "/>
</clipPath>
<clipPath id="clip29">
  <rect x="0" y="0" width="200" height="200"/>
</clipPath>
<g id="surface35" clip-path="url(#clip29)">
<g clip-path="url(#clip30)" clip-rule="nonzero">
<path style=" stroke:none;fill-rule:nonzero;fill:rgb(100%,100%,100%);fill-opacity:1;" d="M 186.21875 96.691406 L 151.878906 96.691406 C 148.089844 96.691406 145.007812 100.011719 145.007812 104.101562 L 145.007812 115.21875 C 145.007812 111.128906 148.089844 107.808594 151.878906 107.808594 L 186.21875 107.808594 C 190.007812 107.808594 193.085938 111.128906 193.085938 115.21875 L 193.085938 104.101562 C 193.085938 100.011719 190.007812 96.691406 186.21875 96.691406 "/>
</g>
</g>
</defs>
<g id="surface1">
<path style=" stroke:none;fill-rule:nonzero;fill:rgb(71.764706%,51.372549%,49.019608%);fill-opacity:1;" d="M 186.21875 52.222656 C 186.21875 44.039062 180.066406 37.402344 172.480469 37.402344 L 21.382812 37.402344 C 13.796875 37.402344 7.648438 30.765625 7.648438 22.578125 L 7.648438 178.210938 C 7.648438 186.398438 13.796875 193.035156 21.382812 193.035156 L 172.480469 193.035156 C 180.066406 193.035156 186.21875 186.398438 186.21875 178.210938 Z M 186.21875 52.222656 "/>
<use xlink:href="#surface5" mask="url(#mask0)"/>
<use xlink:href="#surface8" mask="url(#mask1)"/>
<use xlink:href="#surface11" mask="url(#mask2)"/>
<use xlink:href="#surface14" mask="url(#mask3)"/>
<use xlink:href="#surface17" mask="url(#mask4)"/>
<use xlink:href="#surface20" mask="url(#mask5)"/>
<path style=" stroke:none;fill-rule:nonzero;fill:rgb(75.686275%,63.921569%,62.745098%);fill-opacity:1;" d="M 172.480469 37.402344 L 172.480469 22.578125 C 172.480469 14.394531 166.332031 7.757812 158.746094 7.757812 L 21.382812 7.757812 C 13.796875 7.757812 7.648438 14.394531 7.648438 22.578125 C 7.648438 30.765625 13.796875 37.402344 21.382812 37.402344 Z M 172.480469 37.402344 "/>
<use xlink:href="#surface23" mask="url(#mask6)"/>
<use xlink:href="#surface26" mask="url(#mask7)"/>
<path style=" stroke:none;fill-rule:nonzero;fill:rgb(31.372549%,31.372549%,60.784314%);fill-opacity:1;" d="M 175.914062 34.070312 L 175.914062 22.578125 C 175.90625 12.351562 168.222656 4.0625 158.746094 4.050781 L 21.382812 4.050781 C 11.898438 4.050781 4.214844 12.34375 4.210938 22.578125 L 4.210938 178.210938 C 4.222656 188.441406 11.90625 196.722656 21.382812 196.738281 L 172.480469 196.738281 C 181.957031 196.722656 189.640625 188.441406 189.652344 178.210938 L 189.652344 52.222656 C 189.644531 43.265625 183.746094 35.796875 175.914062 34.070312 Z M 21.382812 11.460938 L 158.746094 11.460938 C 164.433594 11.46875 169.042969 16.445312 169.046875 22.578125 L 169.046875 33.695312 L 21.382812 33.695312 C 15.699219 33.6875 11.089844 28.71875 11.082031 22.578125 C 11.082031 16.4375 15.691406 11.460938 21.382812 11.460938 Z M 182.785156 178.210938 C 182.777344 184.347656 178.167969 189.320312 172.480469 189.328125 L 21.382812 189.328125 C 15.699219 189.320312 11.089844 184.347656 11.082031 178.210938 L 11.082031 37.402344 C 12.535156 38.582031 14.171875 39.511719 15.933594 40.148438 C 15.945312 40.152344 15.953125 40.15625 15.964844 40.160156 C 16.394531 40.3125 16.828125 40.449219 17.269531 40.570312 C 17.273438 40.570312 17.273438 40.570312 17.273438 40.570312 C 17.710938 40.683594 18.152344 40.78125 18.597656 40.859375 C 18.609375 40.863281 18.621094 40.867188 18.632812 40.867188 C 19.054688 40.941406 19.476562 40.996094 19.910156 41.035156 C 19.972656 41.039062 20.039062 41.046875 20.101562 41.050781 C 20.523438 41.082031 20.953125 41.105469 21.382812 41.105469 L 172.484375 41.105469 C 172.488281 41.105469 172.492188 41.105469 172.496094 41.105469 C 178.179688 41.121094 182.777344 46.089844 182.785156 52.222656 Z M 182.785156 178.210938 "/>
<path style=" stroke:none;fill-rule:nonzero;fill:rgb(66.666667%,47.45098%,45.490196%);fill-opacity:1;" d="M 151.878906 96.691406 L 186.21875 96.691406 C 190.007812 96.691406 193.085938 100.011719 193.085938 104.101562 L 193.085938 126.335938 C 193.085938 130.421875 190.007812 133.746094 186.21875 133.746094 L 151.878906 133.746094 C 148.089844 133.746094 145.007812 130.421875 145.007812 126.335938 L 145.007812 104.101562 C 145.007812 100.011719 148.089844 96.691406 151.878906 96.691406 "/>
<use xlink:href="#surface29" mask="url(#mask8)"/>
<use xlink:href="#surface32" mask="url(#mask9)"/>
<use xlink:href="#surface35" mask="url(#mask10)"/>
<path style=" stroke:none;fill-rule:nonzero;fill:rgb(36.078431%,36.078431%,62.745098%);fill-opacity:1;" d="M 162.179688 122.628906 C 158.390625 122.628906 155.3125 119.3125 155.3125 115.21875 C 155.3125 111.125 158.390625 107.804688 162.179688 107.804688 C 165.96875 107.804688 169.046875 111.125 169.046875 115.21875 C 169.042969 119.308594 165.96875 122.621094 162.179688 122.628906 "/>
<path style=" stroke:none;fill-rule:nonzero;fill:rgb(31.372549%,31.372549%,60.784314%);fill-opacity:1;" d="M 186.21875 137.449219 L 151.878906 137.449219 C 146.191406 137.445312 141.582031 132.472656 141.574219 126.332031 L 141.574219 104.101562 C 141.582031 97.964844 146.191406 92.992188 151.878906 92.984375 L 186.21875 92.984375 C 191.90625 92.992188 196.515625 97.964844 196.519531 104.101562 L 196.519531 126.332031 C 196.511719 132.472656 191.90625 137.445312 186.21875 137.449219 M 151.878906 100.394531 C 149.984375 100.394531 148.445312 102.058594 148.441406 104.101562 L 148.441406 126.335938 C 148.445312 128.378906 149.984375 130.039062 151.878906 130.039062 L 186.21875 130.039062 C 188.113281 130.039062 189.648438 128.378906 189.652344 126.335938 L 189.652344 104.101562 C 189.648438 102.058594 188.113281 100.394531 186.21875 100.394531 Z M 151.878906 100.394531 "/>
</g>
</svg>
